<svg width="48" height="48" viewBox="0 0 48 48" fill="none" xmlns="http://www.w3.org/2000/svg">
    <circle opacity="0.2" cx="24" cy="24" r="24" fill="#8486D2" />
    <path
        d="M16.0678 13.8007H18.3998V13.317C18.3998 12.9179 18.5584 12.5349 18.8404 12.2528C19.1228 11.9705 19.5055 11.8119 19.9046 11.8119H21.5791C21.6991 11.1298 22.1345 10.5444 22.7534 10.2332C23.3726 9.92228 24.1023 9.92228 24.7212 10.2332C25.3401 10.5443 25.7755 11.1298 25.8955 11.8119H27.5783C27.9774 11.8119 28.3602 11.9705 28.6425 12.2528C28.9245 12.5349 29.0832 12.9179 29.0832 13.317V13.8007H31.4152C31.9634 13.8007 32.4892 14.0184 32.8768 14.4063C33.2644 14.7939 33.4824 15.3197 33.4824 15.8679V35.9327C33.4824 36.481 33.2644 37.0068 32.8768 37.3944C32.4892 37.782 31.9634 38 31.4152 38H16.0674C15.5191 38 14.9934 37.782 14.6057 37.3944C14.2181 37.0068 14.0001 36.481 14.0001 35.9327V15.8679C14.0001 15.3197 14.2181 14.7939 14.6057 14.4063C14.9934 14.0184 15.5191 13.8007 16.0674 13.8007H16.0678ZM28.2564 13.317C28.2541 12.9436 27.9518 12.641 27.5784 12.639H25.5111C25.2781 12.6237 25.097 12.4299 25.0975 12.1966C25.114 11.8211 24.975 11.4554 24.7137 11.1855C24.4524 10.9156 24.0916 10.7647 23.7158 10.7688C23.34 10.7728 22.9824 10.9311 22.7268 11.2066C22.4713 11.482 22.3404 11.8506 22.3646 12.2255C22.3646 12.3351 22.3211 12.4403 22.2435 12.5179C22.1659 12.5955 22.0609 12.639 21.9513 12.639H19.8841C19.5103 12.6411 19.2081 12.9436 19.2058 13.3171V15.1155C19.2081 15.4884 19.5112 15.7895 19.8841 15.7895H27.5779C27.9508 15.7895 28.2537 15.4884 28.256 15.1155L28.2564 13.317ZM14.8274 35.9327C14.8274 36.2615 14.9581 36.577 15.1905 36.8097C15.4232 37.0422 15.7388 37.1728 16.0675 37.1728H31.4153C31.7441 37.1728 32.0596 37.0422 32.2924 36.8097C32.5248 36.577 32.6555 36.2615 32.6555 35.9327V15.8679C32.6555 15.5388 32.5248 15.2236 32.2924 14.9908C32.0596 14.7581 31.7441 14.6274 31.4153 14.6274H29.0833V15.1154C29.0822 15.5137 28.9233 15.8955 28.6412 16.177C28.3589 16.4582 27.9768 16.6163 27.5784 16.6163H19.9045C19.5063 16.6163 19.1242 16.4582 18.8418 16.177C18.5597 15.8955 18.4008 15.5137 18.3996 15.1154V14.6274H16.0676C15.7389 14.6274 15.4234 14.7581 15.1906 14.9908C14.9582 15.2236 14.8275 15.5388 14.8275 15.8679L14.8274 35.9327ZM18.7095 22.1811H26.0525C26.2809 22.1811 26.4658 21.9959 26.4658 21.7678C26.4658 21.5394 26.2809 21.3542 26.0525 21.3542H18.7095C18.4811 21.3542 18.296 21.5394 18.296 21.7678C18.296 21.9959 18.4811 22.1811 18.7095 22.1811ZM27.6733 21.7675L27.6736 21.7678C27.6736 21.9902 27.8074 22.1906 28.013 22.2757C28.2183 22.3607 28.4548 22.3137 28.612 22.1566C28.7695 21.9991 28.8165 21.7626 28.7314 21.5573C28.6463 21.3516 28.4456 21.2178 28.2232 21.2178C28.0767 21.2178 27.9363 21.2764 27.833 21.3802C27.7298 21.4843 27.6724 21.6253 27.6736 21.7718L27.6733 21.7675ZM18.7095 24.9592L26.0525 24.9595C26.2809 24.9595 26.4658 24.7743 26.4658 24.5459C26.4658 24.3178 26.2809 24.1326 26.0525 24.1326H18.7095C18.4811 24.1326 18.296 24.3178 18.296 24.5459C18.296 24.7743 18.4811 24.9595 18.7095 24.9595V24.9592ZM27.6733 24.5456L27.6736 24.5459C27.6718 24.7688 27.8048 24.9704 28.0101 25.057C28.2155 25.1435 28.4525 25.0973 28.6106 24.9404C28.7689 24.7836 28.8165 24.5468 28.7317 24.3406C28.6469 24.1347 28.4462 24.0003 28.2232 24.0003C27.9204 24.0026 27.6756 24.2474 27.6736 24.5502L27.6733 24.5456ZM18.7095 27.7373L26.0525 27.7379C26.2809 27.7379 26.4658 27.5527 26.4658 27.3243C26.4658 27.0959 26.2809 26.911 26.0525 26.911H18.7095C18.4811 26.911 18.296 27.0959 18.296 27.3243C18.296 27.5527 18.4811 27.7379 18.7095 27.7379V27.7373ZM27.6733 27.3237L27.6736 27.3243C27.6736 27.5467 27.8074 27.7474 28.013 27.8325C28.2183 27.9175 28.4548 27.8705 28.612 27.7131C28.7695 27.5559 28.8165 27.3194 28.7314 27.1138C28.6463 26.9084 28.4456 26.7743 28.2232 26.7743C28.0767 26.7743 27.9363 26.8329 27.833 26.937C27.7298 27.0411 27.6724 27.1818 27.6736 27.3283L27.6733 27.3237ZM18.7095 30.5198L26.0525 30.5203C26.2809 30.5203 26.4658 30.3352 26.4658 30.1068C26.4658 29.8787 26.2809 29.6935 26.0525 29.6935H18.7095C18.4811 29.6935 18.296 29.8786 18.296 30.1068C18.296 30.3352 18.4811 30.5203 18.7095 30.5203V30.5198ZM27.6733 30.1062L27.6736 30.1068C27.6736 30.3291 27.8074 30.5299 28.013 30.6149C28.2183 30.7 28.4548 30.653 28.612 30.4958C28.7695 30.3384 28.8165 30.1019 28.7314 29.8965C28.6463 29.6909 28.4456 29.5571 28.2232 29.5571C28.0767 29.5571 27.9363 29.6153 27.833 29.7194C27.7298 29.8236 27.6724 29.9643 27.6736 30.1111L27.6733 30.1062Z"
        fill="#171717" stroke="#171717" stroke-width="0.3" />
</svg>
