<svg width="30" height="19" viewBox="0 0 30 19" fill="none" xmlns="http://www.w3.org/2000/svg">
    <path
        d="M29.1224 15.1201C28.9022 15.2458 28.6823 15.3716 28.4621 15.5288C28.0221 15.8117 27.6133 16.0945 27.079 16.0945C26.5446 16.0945 26.1359 15.8117 25.6958 15.5288C25.4443 15.3716 25.1928 15.2144 24.9099 15.0574L28.8079 7.8275C28.8708 7.73321 28.8708 7.60735 28.8079 7.51306C28.7449 7.41878 28.6506 7.35585 28.525 7.35585H23.8412C23.7469 7.35585 23.684 7.3872 23.6211 7.45013L22.8668 8.20461H20.4463V6.47567C20.4463 5.53258 19.6604 4.74672 18.7173 4.74672V3.39515C18.7173 3.20658 18.5917 3.08072 18.4029 3.08072H16.4854V0.314434C16.4854 0.125861 16.3597 0 16.1709 0H13.7191C13.5305 0 13.4046 0.125642 13.4046 0.314434L13.4051 4.74674H10.4188C9.47576 4.74674 8.6899 5.5326 8.6899 6.47569V7.85886H7.0868C6.14372 7.85886 5.35786 8.64472 5.35786 9.58781V9.90224L1.17708 9.90202C1.05144 9.90202 0.956934 9.96495 0.894222 10.0592C0.831292 10.1535 0.862867 10.2794 0.925577 10.3737L4.19464 15.1202C4.00607 15.2145 3.8175 15.3404 3.62894 15.466C3.18886 15.7489 2.78015 16.0317 2.24577 16.0317C1.71138 16.0317 1.30268 15.7488 0.862596 15.466C0.736954 15.3717 0.611093 15.3088 0.485451 15.2459C0.328234 15.1516 0.139662 15.2145 0.0453809 15.3401C-0.0489055 15.4974 0.0140253 15.6859 0.139667 15.7802C0.265309 15.8431 0.359814 15.9374 0.485457 16.0004C0.956883 16.3148 1.49147 16.6606 2.2144 16.6606C2.93734 16.6606 3.47167 16.3148 3.94335 16.0004C4.38342 15.7175 4.79214 15.4346 5.32652 15.4346C5.86088 15.4346 6.26961 15.7175 6.70969 16.0004C7.18112 16.3148 7.7157 16.6606 8.43864 16.6606C9.16157 16.6606 9.6959 16.3148 10.1676 16.0004C10.6077 15.7175 11.0164 15.4346 11.5508 15.4346C12.0851 15.4346 12.4938 15.7175 12.9339 16.0004C13.4054 16.3148 13.9399 16.6606 14.6629 16.6606C15.3858 16.6606 15.9201 16.3148 16.3918 16.0004C16.8319 15.7175 17.2406 15.4346 17.775 15.4346C18.3093 15.4346 18.7181 15.7175 19.1582 16.0004C19.6296 16.3148 20.1642 16.6606 20.8871 16.6606C21.61 16.6606 22.1444 16.3148 22.6161 16.0004C23.0561 15.7175 23.4648 15.4346 23.9992 15.4346C24.5336 15.4346 24.9423 15.7175 25.3824 16.0004C25.8538 16.3148 26.3884 16.6606 27.1113 16.6606C27.8343 16.6606 28.3686 16.3148 28.8403 16.0004C29.0289 15.8747 29.2174 15.7489 29.4376 15.6546C29.5948 15.5603 29.6577 15.3717 29.5632 15.2459C29.4683 15.1202 29.2797 15.0573 29.1225 15.1202L29.1224 15.1201ZM18.0575 3.74087V4.74688H16.4544V3.70955H18.0575V3.74087ZM14.0025 0.628974H15.8257V4.74683H14.0025V0.628974ZM5.95533 9.61921C5.95533 9.0219 6.45833 8.5189 7.05565 8.5189H16.1402C16.3288 8.5189 16.4546 8.39325 16.4546 8.20446C16.4546 8.01589 16.329 7.89003 16.1402 7.89003L9.31893 7.89025V6.50708C9.31893 5.90977 9.82193 5.40676 10.4192 5.40676H18.6865C19.2838 5.40676 19.7868 5.90976 19.7868 6.50708L19.7866 8.20465H19.0637C18.9694 8.20465 18.9064 8.236 18.8435 8.29893L17.2404 9.90203H5.95546L5.95533 9.61921ZM22.2698 15.5289C21.8297 15.8117 21.421 16.0946 20.8866 16.0946C20.3522 16.0946 19.9435 15.8117 19.5034 15.5289C19.032 15.2144 18.4974 14.8686 17.7745 14.8686C17.0516 14.8686 16.5172 15.2144 16.0455 15.5289C15.6055 15.8117 15.1968 16.0946 14.6624 16.0946C14.128 16.0946 13.7193 15.8117 13.2792 15.5289C12.8078 15.2144 12.2732 14.8686 11.5503 14.8686C10.8273 14.8686 10.293 15.2144 9.82132 15.5289C9.38125 15.8117 8.97253 16.0946 8.43815 16.0946C7.90376 16.0946 7.49506 15.8117 7.05498 15.5289C6.58355 15.2144 6.04896 14.8686 5.32603 14.8686C5.10588 14.8686 4.91731 14.9 4.76032 14.9629L1.77456 10.5624H17.366C17.4603 10.5624 17.5232 10.531 17.5862 10.4681L19.2204 8.83346H22.9927C23.0869 8.83346 23.1499 8.80211 23.2128 8.73918L23.9673 7.9847H28.0538L24.3442 14.8688C24.2499 14.8375 24.1241 14.8375 23.9984 14.8375C23.2755 14.8375 22.7412 15.2146 22.2695 15.5288L22.2698 15.5289Z"
        fill="white" />
    <path
        d="M23.9982 17.0381C23.2752 17.0381 22.7409 17.3839 22.2692 17.6983C21.8292 17.9812 21.4204 18.264 20.8861 18.264C20.3517 18.264 19.943 17.9812 19.5029 17.6983C19.0315 17.3839 18.4969 17.0381 17.7739 17.0381C17.051 17.0381 16.5167 17.3839 16.045 17.6983C15.6049 17.9812 15.1962 18.264 14.6618 18.264C14.1275 18.264 13.7187 17.9812 13.2787 17.6983C12.8072 17.3839 12.2726 17.0381 11.5497 17.0381C10.8268 17.0381 10.2924 17.3839 9.82076 17.6983C9.38069 17.9812 8.97198 18.264 8.43759 18.264C7.90321 18.264 7.49451 17.9812 7.05442 17.6983C6.583 17.3839 6.04841 17.0381 5.32548 17.0381C4.60254 17.0381 4.06821 17.3839 3.59653 17.6983C3.15646 17.9812 2.74774 18.264 2.21336 18.264C2.02479 18.264 1.89893 18.3897 1.89893 18.5785C1.89893 18.767 2.02457 18.8929 2.21336 18.8929C2.93629 18.8929 3.47062 18.5471 3.94231 18.2327C4.38238 17.9498 4.79109 17.667 5.32548 17.667C5.85983 17.667 6.26856 17.9498 6.70865 18.2327C7.18007 18.5471 7.71466 18.8929 8.43759 18.8929C9.16053 18.8929 9.69486 18.5471 10.1665 18.2327C10.6066 17.9498 11.0153 17.667 11.5497 17.667C12.0841 17.667 12.4928 17.9498 12.9329 18.2327C13.4043 18.5471 13.9389 18.8929 14.6618 18.8929C15.3848 18.8929 15.9191 18.5471 16.3908 18.2327C16.8308 17.9498 17.2396 17.667 17.7739 17.667C18.3083 17.667 18.717 17.9498 19.1571 18.2327C19.6285 18.5471 20.1631 18.8929 20.8861 18.8929C21.609 18.8929 22.1433 18.5471 22.615 18.2327C23.0551 17.9498 23.4638 17.667 23.9982 17.667C24.1868 17.667 24.3126 17.5413 24.3126 17.3525C24.3126 17.1637 24.1868 17.0381 23.9982 17.0381Z"
        fill="white" />
    <path
        d="M6.92974 12.6995C6.92974 13.0988 6.60588 13.4224 6.20658 13.4224C5.80729 13.4224 5.48364 13.0988 5.48364 12.6995C5.48364 12.3002 5.80728 11.9766 6.20658 11.9766C6.60587 11.9766 6.92974 12.3002 6.92974 12.6995Z"
        fill="white" />
    <path
        d="M10.4818 12.6995C10.4818 13.0988 10.1581 13.4224 9.75882 13.4224C9.35953 13.4224 9.03589 13.0988 9.03589 12.6995C9.03589 12.3002 9.35953 11.9766 9.75882 11.9766C10.1581 11.9766 10.4818 12.3002 10.4818 12.6995Z"
        fill="white" />
    <path
        d="M14.0342 12.6995C14.0342 13.0988 13.7106 13.4224 13.3113 13.4224C12.912 13.4224 12.5881 13.0988 12.5881 12.6995C12.5881 12.3002 12.912 11.9766 13.3113 11.9766C13.7106 11.9766 14.0342 12.3002 14.0342 12.6995Z"
        fill="white" />
    <path
        d="M17.6175 12.6995C17.6175 13.0988 17.2938 13.4224 16.8945 13.4224C16.4953 13.4224 16.1714 13.0988 16.1714 12.6995C16.1714 12.3002 16.4952 11.9766 16.8945 11.9766C17.2938 11.9766 17.6175 12.3002 17.6175 12.6995Z"
        fill="white" />
    <path
        d="M25.0363 10.5937C25.0363 10.4052 24.9106 10.2793 24.7219 10.2793C24.5333 10.2793 24.4074 10.4049 24.4074 10.5937C24.4074 10.8139 24.2189 11.0024 23.9987 11.0024C23.779 11.0024 23.6218 10.8137 23.6218 10.5937C23.6218 10.4052 23.4961 10.2793 23.3074 10.2793C23.1188 10.2793 22.9929 10.4049 22.9929 10.5937C22.9929 11.1594 23.4643 11.6311 24.0303 11.6311C24.5962 11.6311 25.0363 11.1594 25.0363 10.5937H25.0363Z"
        fill="white" />
</svg>
