<svg width="25" height="27" viewBox="0 0 25 27" fill="none" xmlns="http://www.w3.org/2000/svg">
    <path
        d="M24.4634 2.30381H16.4714V1.61266C16.4714 0.691142 15.7404 0 14.7658 0H13.5475C12.5728 0 11.8418 0.691142 11.8418 1.61266V2.30381H3.84982C3.55743 2.30381 3.3625 2.48811 3.3625 2.76457V14.6064L0.146196 17.6935C-0.0487319 17.8778 -0.0487319 18.1542 0.146196 18.3386C0.243659 18.4307 0.341123 18.4768 0.487319 18.4768C0.633514 18.4768 0.730978 18.4307 0.828442 18.3386L3.3625 15.9426V18.7993C3.3625 19.0758 3.55743 19.2601 3.84982 19.2601H10.1365L9.16187 26.2173C9.16187 26.3555 9.16187 26.4938 9.25933 26.5859C9.3568 26.6781 9.50299 26.7241 9.64919 26.7241H11.501C11.7447 26.7241 11.9396 26.5398 11.9883 26.3095L12.963 19.2595H15.3995L16.4229 26.3095C16.4716 26.5398 16.6666 26.7241 16.9102 26.7241H18.7133C18.8595 26.7241 19.0057 26.6781 19.1032 26.5859C19.2006 26.4938 19.2494 26.3555 19.2006 26.2173L18.226 19.2601H24.5127C24.8051 19.2601 25 19.0758 25 18.7993V2.76483C24.9513 2.48837 24.7563 2.30407 24.4639 2.30407L24.4634 2.30381ZM12.8168 1.61266C12.8168 1.24405 13.1579 0.921522 13.5477 0.921522H14.766C15.1559 0.921522 15.497 1.24405 15.497 1.61266V2.30381H12.8168V1.61266ZM11.0137 25.8029H10.1365L11.0624 19.2601H11.8909L11.0137 25.8029ZM17.3488 25.8029L16.3742 19.2601H17.2026L18.1773 25.8029H17.3488ZM23.9764 18.3386H4.33769V15.0211L7.70019 11.7957C7.89512 11.6114 7.89512 11.335 7.70019 11.1507C7.50526 10.9664 7.21287 10.9664 7.01794 11.1507L4.33769 13.6849V3.22585H23.9764V18.3386Z"
        fill="#171717" />
    <path
        d="M8.82104 9.6756C8.82104 9.95206 9.01597 10.1364 9.30836 10.1364H19.0547C19.3471 10.1364 19.5421 9.95206 19.5421 9.6756C19.5421 9.39915 19.3471 9.21484 19.0547 9.21484H9.30836C9.01597 9.21484 8.82104 9.39915 8.82104 9.6756Z"
        fill="#171717" />
    <path
        d="M19.054 11.5195H9.30763C9.01524 11.5195 8.82031 11.7038 8.82031 11.9803C8.82031 12.2567 9.01524 12.4411 9.30763 12.4411H19.054C19.3464 12.4411 19.5413 12.2567 19.5413 11.9803C19.5413 11.7038 19.3464 11.5195 19.054 11.5195Z"
        fill="#171717" />
</svg>
