<svg width="20" height="14" viewBox="0 0 20 14" fill="none" xmlns="http://www.w3.org/2000/svg">
    <path d="M20 0H0V13.3505H20V0Z" fill="#FF9933" />
    <path d="M20 4.44922H0V8.89939H20V4.44922Z" fill="white" />
    <path d="M20 8.90088H0V13.3511H20V8.90088Z" fill="#128807" />
    <path
        d="M10.0008 8.45516C10.9826 8.45516 11.7786 7.65819 11.7786 6.67509C11.7786 5.69198 10.9826 4.89502 10.0008 4.89502C9.01896 4.89502 8.22302 5.69198 8.22302 6.67509C8.22302 7.65819 9.01896 8.45516 10.0008 8.45516Z"
        fill="#000088" />
    <path
        d="M9.99989 8.23182C10.859 8.23182 11.5554 7.53448 11.5554 6.67426C11.5554 5.81404 10.859 5.1167 9.99989 5.1167C9.14078 5.1167 8.44434 5.81404 8.44434 6.67426C8.44434 7.53448 9.14078 8.23182 9.99989 8.23182Z"
        fill="white" />
    <path
        d="M10.0008 6.98582C10.1726 6.98582 10.3119 6.84635 10.3119 6.67431C10.3119 6.50226 10.1726 6.36279 10.0008 6.36279C9.82899 6.36279 9.6897 6.50226 9.6897 6.67431C9.6897 6.84635 9.82899 6.98582 10.0008 6.98582Z"
        fill="#000088" />
    <path
        d="M11.5324 6.95463C11.575 6.96024 11.6141 6.93022 11.6197 6.88758C11.6253 6.84494 11.5953 6.80582 11.5527 6.8002C11.5101 6.79459 11.471 6.82461 11.4654 6.86725C11.4598 6.90989 11.4898 6.94901 11.5324 6.95463Z"
        fill="#000088" />
    <path d="M9.99987 8.23063L10.0532 7.29609L9.99987 6.85107L9.94653 7.29609L9.99987 8.23063Z"
        fill="#000088" />
    <path
        d="M11.4092 7.34361C11.4489 7.36008 11.4944 7.34122 11.5109 7.30149C11.5273 7.26177 11.5084 7.21621 11.4687 7.19974C11.429 7.18327 11.3835 7.20213 11.3671 7.24186C11.3507 7.28158 11.3695 7.32714 11.4092 7.34361Z"
        fill="#000088" />
    <path d="M9.59911 8.17985L9.89217 7.29101L9.95561 6.84733L9.78905 7.26334L9.59911 8.17985Z"
        fill="#000088" />
    <path
        d="M11.1868 7.68073C11.2209 7.70692 11.2697 7.7005 11.2958 7.66639C11.322 7.63227 11.3155 7.58339 11.2814 7.55719C11.2474 7.531 11.1985 7.53742 11.1724 7.57153C11.1463 7.60565 11.1527 7.65453 11.1868 7.68073Z"
        fill="#000088" />
    <path d="M9.22201 8.02073L9.73486 7.23814L9.91084 6.82604L9.64242 7.1847L9.22201 8.02073Z"
        fill="#000088" />
    <path
        d="M10.8859 7.95444C10.9121 7.98857 10.9609 7.99502 10.995 7.96885C11.029 7.94267 11.0354 7.89378 11.0093 7.85965C10.9831 7.82552 10.9343 7.81907 10.9002 7.84525C10.8662 7.87142 10.8597 7.92031 10.8859 7.95444Z"
        fill="#000088" />
    <path d="M8.90008 7.773L9.59775 7.14999L9.87428 6.79755L9.52229 7.07443L8.90008 7.773Z"
        fill="#000088" />
    <path
        d="M10.5239 8.14183C10.5404 8.18155 10.5859 8.20041 10.6256 8.18394C10.6652 8.16747 10.6841 8.12191 10.6677 8.08218C10.6513 8.04246 10.6058 8.02361 10.5661 8.04008C10.5264 8.05655 10.5075 8.1021 10.5239 8.14183Z"
        fill="#000088" />
    <path d="M8.65385 7.45334L9.48882 7.03225L9.84708 6.7635L9.43552 6.93981L8.65385 7.45334Z"
        fill="#000088" />
    <path
        d="M10.1264 8.23037C10.132 8.27301 10.171 8.30301 10.2136 8.29738C10.2562 8.29176 10.2862 8.25264 10.2806 8.21C10.275 8.16737 10.236 8.13737 10.1934 8.143C10.1508 8.14862 10.1208 8.18774 10.1264 8.23037Z"
        fill="#000088" />
    <path d="M8.49762 7.07958L9.41296 6.88918L9.82849 6.72244L9.38539 6.78611L8.49762 7.07958Z"
        fill="#000088" />
    <path
        d="M9.7198 8.21124C9.71418 8.25389 9.74414 8.29301 9.78672 8.29861C9.8293 8.30422 9.86837 8.27418 9.87398 8.23153C9.8796 8.18887 9.84964 8.14975 9.80706 8.14415C9.76448 8.13855 9.72542 8.16858 9.7198 8.21124Z"
        fill="#000088" />
    <path d="M8.44401 6.67713L9.37731 6.73008L9.82176 6.67675L9.37734 6.62366L8.44401 6.67713Z"
        fill="#000088" />
    <path
        d="M9.333 8.08659C9.31656 8.12633 9.33539 8.17189 9.37508 8.18834C9.41476 8.2048 9.46025 8.18592 9.4767 8.14618C9.49314 8.10644 9.4743 8.06088 9.43462 8.04442C9.39494 8.02797 9.34944 8.04685 9.333 8.08659Z"
        fill="#000088" />
    <path d="M8.49766 6.27321L9.38537 6.56666L9.82847 6.63022L9.41299 6.46345L8.49766 6.27321Z"
        fill="#000088" />
    <path
        d="M8.99145 7.86389C8.96532 7.898 8.97176 7.94689 9.00585 7.97308C9.03994 7.99927 9.08876 7.99285 9.1149 7.95874C9.14104 7.92463 9.1346 7.87574 9.10051 7.84955C9.06642 7.82335 9.01759 7.82977 8.99145 7.86389Z"
        fill="#000088" />
    <path d="M8.65293 5.89544L9.43459 6.40897L9.84616 6.58528L9.48789 6.31653L8.65293 5.89544Z"
        fill="#000088" />
    <path
        d="M8.71907 7.56295C8.685 7.58912 8.67859 7.63801 8.70475 7.67214C8.73091 7.70627 8.77973 7.71272 8.8138 7.68655C8.84787 7.66038 8.85428 7.61149 8.82812 7.57736C8.80196 7.54322 8.75314 7.53677 8.71907 7.56295Z"
        fill="#000088" />
    <path d="M8.90148 5.57587L9.52379 6.27446L9.87576 6.55141L9.59917 6.19898L8.90148 5.57587Z"
        fill="#000088" />
    <path
        d="M8.53462 7.19739C8.49494 7.21384 8.4761 7.25939 8.49255 7.29914C8.509 7.33888 8.55449 7.35776 8.59417 7.34131C8.63385 7.32486 8.65268 7.2793 8.63624 7.23956C8.61979 7.19982 8.57429 7.18093 8.53462 7.19739Z"
        fill="#000088" />
    <path d="M9.22364 5.3251L9.64417 6.16113L9.91257 6.51985L9.7365 6.10776L9.22364 5.3251Z"
        fill="#000088" />
    <path
        d="M8.44798 6.79857C8.4054 6.80418 8.37543 6.8433 8.38105 6.88595C8.38666 6.9286 8.42573 6.95863 8.46831 6.95302C8.51089 6.94742 8.54086 6.9083 8.53524 6.86565C8.52963 6.823 8.49056 6.79297 8.44798 6.79857Z"
        fill="#000088" />
    <path d="M9.59747 5.1666L9.78759 6.08311L9.95413 6.49916L9.89056 6.05549L9.59747 5.1666Z"
        fill="#000088" />
    <path
        d="M8.46682 6.39354C8.42422 6.38791 8.38515 6.41791 8.37955 6.46054C8.37395 6.50318 8.40395 6.5423 8.44655 6.54792C8.48915 6.55355 8.52822 6.52355 8.53381 6.48091C8.53941 6.43828 8.50941 6.39916 8.46682 6.39354Z"
        fill="#000088" />
    <path d="M9.99921 5.11558L9.94633 6.05008L9.99959 6.4951L10.0526 6.05011L9.99921 5.11558Z"
        fill="#000088" />
    <path
        d="M8.59163 6.00649C8.55193 5.99002 8.50643 6.00888 8.49 6.0486C8.47357 6.08833 8.49244 6.13389 8.53213 6.15036C8.57182 6.16683 8.61732 6.14797 8.63375 6.10824C8.65018 6.06851 8.63132 6.02296 8.59163 6.00649Z"
        fill="#000088" />
    <path d="M10.4017 5.17025L10.1087 6.05908L10.0452 6.50277L10.2118 6.08676L10.4017 5.17025Z"
        fill="#000088" />
    <path
        d="M8.81236 5.66351C8.77827 5.63732 8.72944 5.64374 8.7033 5.67785C8.67716 5.71196 8.68361 5.76085 8.7177 5.78705C8.75178 5.81324 8.80061 5.80682 8.82675 5.77271C8.85289 5.73859 8.84645 5.6897 8.81236 5.66351Z"
        fill="#000088" />
    <path d="M10.7771 5.32351L10.2643 6.1061L10.0883 6.5182L10.3567 6.15954L10.7771 5.32351Z"
        fill="#000088" />
    <path
        d="M9.11495 5.39175C9.08879 5.35762 9.03997 5.35117 9.0059 5.37734C8.97183 5.40352 8.96542 5.45241 8.99157 5.48654C9.01773 5.52067 9.06656 5.52712 9.10063 5.50095C9.1347 5.47477 9.14111 5.42589 9.11495 5.39175Z"
        fill="#000088" />
    <path d="M11.1008 5.5732L10.4031 6.1962L10.1266 6.54864L10.4786 6.27177L11.1008 5.5732Z"
        fill="#000088" />
    <path
        d="M9.47985 5.20729C9.46342 5.16757 9.41793 5.14871 9.37823 5.16518C9.33853 5.18165 9.31967 5.22721 9.3361 5.26694C9.35253 5.30666 9.39802 5.32552 9.43772 5.30905C9.47742 5.29258 9.49628 5.24702 9.47985 5.20729Z"
        fill="#000088" />
    <path d="M11.3499 5.89578L10.515 6.31687L10.1567 6.58562L10.5683 6.40931L11.3499 5.89578Z"
        fill="#000088" />
    <path
        d="M9.87655 5.12119C9.87096 5.07856 9.83189 5.04856 9.78929 5.05418C9.74669 5.05981 9.71669 5.09893 9.72229 5.14156C9.72789 5.18419 9.76695 5.21419 9.80955 5.20857C9.85215 5.20294 9.88215 5.16382 9.87655 5.12119Z"
        fill="#000088" />
    <path d="M11.5043 6.27198L10.589 6.46238L10.1735 6.62913L10.6166 6.56546L11.5043 6.27198Z"
        fill="#000088" />
    <path
        d="M10.2822 5.13788C10.2878 5.09522 10.2578 5.0561 10.2152 5.0505C10.1727 5.0449 10.1336 5.07494 10.128 5.11759C10.1224 5.16025 10.1523 5.19937 10.1949 5.20497C10.2375 5.21057 10.2765 5.18053 10.2822 5.13788Z"
        fill="#000088" />
    <path d="M11.557 6.67197L10.6237 6.61908L10.1792 6.6724L10.6236 6.72545L11.557 6.67197Z"
        fill="#000088" />
    <path
        d="M10.6681 5.26448C10.6845 5.22473 10.6657 5.17918 10.626 5.16272C10.5863 5.14627 10.5408 5.16515 10.5244 5.20489C10.508 5.24464 10.5268 5.29019 10.5665 5.30665C10.6062 5.3231 10.6517 5.30422 10.6681 5.26448Z"
        fill="#000088" />
    <path d="M11.5034 7.07784L10.6157 6.78439L10.1726 6.72085L10.5881 6.88762L11.5034 7.07784Z"
        fill="#000088" />
    <path
        d="M11.011 5.48857C11.0371 5.45445 11.0307 5.40556 10.9966 5.37938C10.9625 5.3532 10.9137 5.35964 10.8876 5.39377C10.8614 5.4279 10.8678 5.47679 10.9019 5.50297C10.936 5.52914 10.9848 5.5227 11.011 5.48857Z"
        fill="#000088" />
    <path d="M11.3495 7.45696L10.5679 6.94345L10.1563 6.76721L10.5145 7.03598L11.3495 7.45696Z"
        fill="#000088" />
    <path
        d="M11.2826 5.78951C11.3167 5.76332 11.3231 5.71444 11.297 5.68032C11.2708 5.6462 11.222 5.63977 11.1879 5.66596C11.1539 5.69215 11.1474 5.74104 11.1736 5.77515C11.1997 5.80927 11.2485 5.8157 11.2826 5.78951Z"
        fill="#000088" />
    <path d="M11.1002 7.77656L10.478 7.07799L10.126 6.80109L10.4025 7.15353L11.1002 7.77656Z"
        fill="#000088" />
    <path
        d="M11.4679 6.15167C11.5076 6.1352 11.5265 6.08965 11.51 6.04992C11.4936 6.01018 11.4481 5.99132 11.4084 6.00779C11.3687 6.02425 11.3499 6.06981 11.3663 6.10954C11.3827 6.14927 11.4282 6.16813 11.4679 6.15167Z"
        fill="#000088" />
    <path d="M10.7789 8.02396L10.3584 7.18793L10.09 6.82925L10.266 7.24135L10.7789 8.02396Z"
        fill="#000088" />
    <path
        d="M11.5536 6.54706C11.5962 6.54145 11.6262 6.50233 11.6206 6.45969C11.615 6.41705 11.5759 6.38704 11.5333 6.39266C11.4907 6.39828 11.4607 6.4374 11.4663 6.48004C11.4719 6.52267 11.511 6.55268 11.5536 6.54706Z"
        fill="#000088" />
    <path d="M10.4032 8.17906L10.2132 7.26254L10.0467 6.84652L10.1101 7.2902L10.4032 8.17906Z"
        fill="#000088" />
</svg>
