<svg width="13" height="15" viewBox="0 0 13 15" fill="none" xmlns="http://www.w3.org/2000/svg">
    <path
        d="M0 0V7.04167C0 9.99908 2.62334 12.6746 6.5 14.0833C10.3771 12.6751 13 9.99908 13 7.04167V0H0ZM1.44436 1.40845H11.5553V7.04143C11.5553 9.4356 9.51507 11.5482 6.49951 12.6744C3.48431 11.5477 1.44374 9.43512 1.44374 7.04143V1.40845H1.44436Z"
        fill="#191B6B" />
    <path
        d="M11.9169 1.0835H1.08337L1.0836 7.04183L1.62527 9.75016L4.3336 12.4585L6.50027 13.0002L7.5836 12.4585L11.3753 9.75016L11.9169 7.76797V1.0835Z"
        fill="#191B6B" />
    <path d="M3 5.5L5.85714 8L10.5 3.5" stroke="white" stroke-width="1.3" />
</svg>
