<svg width="42" height="42" viewBox="0 0 42 42" fill="none" xmlns="http://www.w3.org/2000/svg">
    <path
        d="M41.5294 10.5991L21.405 0.0990867C21.151 -0.0330289 20.8488 -0.0330289 20.5948 0.0990867L0.470365 10.5991C0.181079 10.7495 1.16694e-06 11.0483 1.16694e-06 11.3744V14.8742C-0.000378444 15.1062 0.0918731 15.3291 0.256254 15.4931C0.420256 15.6574 0.643106 15.7493 0.875061 15.7493H1.75012V19.2492C1.75012 19.4812 1.84237 19.704 2.00637 19.868C2.17075 20.0324 2.39322 20.1246 2.62556 20.1243H3.50062V35.8743H2.62556C2.3936 35.874 2.17075 35.9662 2.00675 36.1302C1.84237 36.2942 1.75012 36.5167 1.75012 36.7486V40.2493H0.875061C0.39216 40.2493 0.000380803 40.6411 0.000380803 41.124C0.000380803 41.6073 0.39216 41.9987 0.875061 41.9987H41.1249C41.6078 41.9987 41.9996 41.6073 41.9996 41.124C41.9996 40.6411 41.6078 40.2493 41.1249 40.2493H40.2499V36.7486C40.2499 36.5167 40.1576 36.2942 39.9933 36.1302C39.8293 35.9662 39.6064 35.874 39.3744 35.8743H38.5001V20.1243H39.3744C39.6068 20.1246 39.8293 20.0324 39.9936 19.868C40.1576 19.704 40.2499 19.4812 40.2499 19.2492V15.7493H41.1249C41.3569 15.7497 41.5797 15.6574 41.7437 15.4931C41.9081 15.3291 42.0004 15.1062 42 14.8742V11.3744C42 11.0483 41.8189 10.7495 41.5296 10.5991H41.5294ZM38.4999 40.2498H3.50103V37.6242H38.4999V40.2498ZM27.9999 22.7504C26.8396 22.7515 25.7277 23.2132 24.9078 24.0332C24.0874 24.8532 23.6261 25.9655 23.625 27.1253V35.8751H18.3747V27.1253C18.3732 25.5631 17.5391 24.1204 16.186 23.3399C14.833 22.5594 13.1664 22.5594 11.8138 23.3399C10.4608 24.1205 9.62632 25.5631 9.62486 27.1253V35.8751H5.2499V20.125H36.7501V35.8751H32.3751V27.1253C32.3736 25.9654 31.9123 24.8531 31.0923 24.0332C30.2719 23.2132 29.16 22.7515 28.0002 22.7504H27.9999ZM30.6243 27.1254V35.8752H25.375V27.1254C25.375 26.1877 25.8754 25.3214 26.6874 24.8524C27.4995 24.3836 28.4998 24.3836 29.3119 24.8524C30.1239 25.3213 30.6243 26.1876 30.6243 27.1254ZM16.6255 27.1254V35.8752H11.3755V27.1254C11.3755 26.1877 11.8758 25.321 12.6879 24.8521C13.5003 24.3828 14.5006 24.3828 15.3131 24.8521C16.1251 25.3209 16.6255 26.1876 16.6255 27.1254ZM38.5003 18.3755H3.50141V15.7499H38.5003V18.3755ZM40.2497 14.0006H1.75011V11.9047L20.9999 1.86235L40.2487 11.9047L40.2497 14.0006ZM17.5002 8.75026C17.5002 9.67885 17.8688 10.5691 18.5252 11.2255C19.1816 11.8823 20.0718 12.2509 21.0001 12.2513C21.9283 12.2513 22.8185 11.8827 23.4753 11.2263C24.1317 10.5699 24.5007 9.67966 24.5007 8.75143C24.5007 7.8232 24.1321 6.93258 23.4757 6.27618C22.8193 5.61978 21.9291 5.25076 21.0009 5.25076C20.073 5.25152 19.1832 5.62053 18.5272 6.27696C17.8708 6.93297 17.5014 7.82242 17.5003 8.75026H17.5002ZM22.7502 8.75026C22.7502 9.21455 22.5657 9.65949 22.2373 9.98745C21.9093 10.3158 21.464 10.5 21.0001 10.5C20.5359 10.4996 20.0909 10.3151 19.763 9.98707C19.435 9.65868 19.2505 9.21375 19.2508 8.74949C19.2508 8.28558 19.4353 7.84026 19.7637 7.51231C20.0917 7.1843 20.537 7.00018 21.0009 7.00018C21.4648 7.00056 21.9098 7.18506 22.2378 7.51306C22.5662 7.84145 22.7503 8.28638 22.7503 8.75025L22.7502 8.75026Z"
        fill="white" />
</svg>
