<svg width="20" height="18" viewBox="0 0 20 18" fill="none" xmlns="http://www.w3.org/2000/svg">
    <path
        d="M10.5719 0.219488L19.7426 8.5722C19.8628 8.69618 19.9417 8.80557 19.9809 8.9754C20.0149 9.13851 20.0048 9.28128 19.94 9.43684C19.8773 9.58859 19.7704 9.71201 19.6359 9.79925C19.4993 9.88733 19.3389 9.93656 19.1716 9.93656H17.0374V17.275C17.0374 17.5525 16.8017 17.7778 16.5109 17.7778H12.4179C12.1272 17.7778 11.8913 17.5527 11.8913 17.275V12.9101C11.8913 12.4195 11.681 11.973 11.3422 11.6496C11.0035 11.3262 10.5358 11.1252 10.022 11.1252C9.49785 11.1252 9.03271 11.2931 8.65951 11.6496C8.32083 11.973 8.11038 12.4194 8.11038 12.9101V17.275C8.11038 17.5525 7.87465 17.7778 7.58385 17.7778H3.49009C3.19943 17.7778 2.96356 17.5527 2.96356 17.275V9.93656H0.829828C0.662397 9.93656 0.502012 9.88733 0.365559 9.79925C0.231027 9.71216 0.124103 9.5886 0.0613922 9.43881C0.0036706 9.28089 -0.0193851 9.14429 0.0186536 8.97766C0.0681486 8.81329 0.12587 8.69632 0.258932 8.57446C3.28593 5.81588 6.35181 2.8571 9.4492 0.20308C9.60665 0.0681602 9.80433 0 10.0008 0C10.2053 0 10.4112 0.0739121 10.5719 0.219632L10.5719 0.219488ZM14.6029 5.27693L10.0012 1.08549L1.38692 8.93124H3.49054C3.78119 8.93124 4.01707 9.15634 4.01707 9.43404V16.7725H7.05772V12.9103C7.05772 12.1425 7.38627 11.4448 7.91572 10.9392C8.44519 10.4336 9.17603 10.1199 9.98012 10.1199C10.7848 10.1199 11.5155 10.3936 12.0867 10.9392C12.6161 11.4448 12.9447 12.1426 12.9447 12.9103V16.7725H15.9849V9.43404C15.9849 9.15648 16.2206 8.93124 16.5114 8.93124H18.6156L14.6035 5.27693H14.6029Z"
        fill="white" />
</svg>
