<svg width="21" height="19" viewBox="0 0 21 19" fill="none" xmlns="http://www.w3.org/2000/svg">
    <path
        d="M17.9333 2.98882V0.426948C17.9333 0.203417 17.7299 0 17.5064 0H2.56188C2.33835 0 2.13493 0.203424 2.13493 0.426948V2.98882C1.28103 4.26986 0.649133 5.38974 0 6.40479V7.47225C0 8.46435 0.62176 9.31736 1.49441 9.66048V18.3603C1.49441 18.5838 1.69784 18.7873 1.92136 18.7873H18.1468C18.3703 18.7873 18.5738 18.5838 18.5738 18.3603V9.66048C19.4465 9.31736 20.0682 8.46419 20.0682 7.47225V6.40479M2.98875 0.853972H17.0793V2.9889H2.98875V0.853972ZM2.58174 3.8428H17.4862L19.2141 6.52488V7.47233C19.2141 8.30762 18.555 8.96674 17.7197 8.96674C16.8844 8.96674 16.2253 8.30762 16.2253 7.47233H15.3714C15.3714 8.30762 14.7123 8.96674 13.877 8.96674C13.0417 8.96674 12.3826 8.30762 12.3826 7.47233H11.5287C11.5287 8.30762 10.8696 8.96674 10.0343 8.96674C9.19899 8.96674 8.53987 8.30762 8.53987 7.47233H7.68597C7.68597 8.30762 7.02685 8.96674 6.19156 8.96674C5.35627 8.96674 4.69715 8.30762 4.69715 7.47233H3.84325C3.84325 8.30762 3.18413 8.96674 2.34884 8.96674C1.51355 8.96674 0.854429 8.30762 0.854429 7.47233V6.52488L2.58174 3.8428ZM4.26959 8.73979C4.69105 9.37242 5.37651 9.82067 6.19095 9.82067C7.00539 9.82067 7.69089 9.37257 8.11231 8.73979C8.53377 9.37242 9.21923 9.82067 10.0337 9.82067C10.8481 9.82067 11.5336 9.37257 11.955 8.73979C12.3765 9.37242 13.062 9.82067 13.8764 9.82067C14.6908 9.82067 15.3763 9.37257 15.7978 8.73979C16.2192 9.37242 16.9047 9.82067 17.7191 9.82067V17.9334H9.17939V11.5286C9.17939 11.3051 8.97597 11.1017 8.75245 11.1017H4.48259C4.25906 11.1017 4.05564 11.3051 4.05564 11.5286V17.9334H2.34766V9.82067C3.1621 9.82067 3.8476 9.37257 4.26902 8.73979H4.26959ZM10.8879 11.1015C10.6643 11.1015 10.4609 11.3049 10.4609 11.5285V14.5173C10.4609 14.7408 10.6643 14.9442 10.8879 14.9442H15.5847C15.8082 14.9442 16.0117 14.7408 16.0117 14.5173V11.5285C16.0117 11.3049 15.8082 11.1015 15.5847 11.1015H10.8879ZM4.91007 11.9554H8.32603V17.9332H4.91007V11.9554ZM11.3149 11.9554H15.1577V14.0903H11.3149V11.9554Z"
        fill="white" />
</svg>
