<svg width="17" height="26" viewBox="0 0 17 26" fill="none" xmlns="http://www.w3.org/2000/svg">
    <path
        d="M14 8H9.59208L9 8.70647H10.0526C10.7104 8.70647 11.3025 8.96332 11.5657 9.34864H9.59208L9 10.0551H11.7631C11.6973 10.6973 10.9079 11.2111 9.85519 11.2111H9.19736V11.8533L11.8288 15H12.9472L10.2499 11.7889C11.4998 11.7247 12.4866 11.0182 12.6182 10.0549H13.4734L13.8682 9.34842H12.4866C12.4209 9.09157 12.2235 8.89891 12.0262 8.70625H13.4077L14 8Z"
        fill="#171717" />
    <path
        d="M16.9995 5.84345V5.73722C16.9642 5.5601 16.858 5.45387 16.7162 5.34764C16.3975 4.99338 15.6893 4.28511 14.2016 2.79772L11.4745 0.0706528H11.4392C11.4038 0.0706528 11.4038 0.0353262 11.3683 0.0353262H11.3329C11.2976 0.0353262 11.2976 0.0353264 11.262 0H11.1558H0.531133C0.247777 0 0 0.248029 0 0.531133V25.3221C0 25.5345 0.106228 25.7116 0.318684 25.8179C0.495813 25.8888 0.743595 25.8532 0.88539 25.747L2.12506 24.6138L3.36473 25.7116C3.57719 25.8887 3.86054 25.8887 4.07298 25.7116L5.31266 24.6138L6.55233 25.7116C6.76478 25.8887 7.04813 25.8887 7.26058 25.7116L8.5 24.6138L9.73967 25.7116C9.95212 25.8887 10.2355 25.8887 10.4479 25.7116L11.6873 24.6138L12.927 25.7116C13.1395 25.8887 13.4228 25.8887 13.6353 25.7116L14.8749 24.6138L16.1146 25.7116C16.2208 25.7825 16.3271 25.8532 16.4689 25.8532C16.5398 25.8532 16.6104 25.8532 16.6813 25.8178C16.8584 25.7469 17 25.5345 17 25.322L16.9995 5.84345ZM15.1934 5.31232H11.6872V1.80611C12.6788 2.79775 14.2018 4.32075 15.1934 5.31232ZM15.2287 23.5159C15.0163 23.3388 14.7329 23.3388 14.5205 23.5159L13.2811 24.6138L12.0414 23.5159C11.8289 23.3388 11.5456 23.3388 11.3332 23.5159L10.0935 24.6138L8.85406 23.5159C8.64161 23.3388 8.35826 23.3388 8.14581 23.5159L6.90614 24.6138L5.66647 23.5159C5.45401 23.3388 5.17066 23.3388 4.95822 23.5159L3.71855 24.6138L2.47913 23.5159C2.3729 23.4097 2.26667 23.3744 2.12487 23.3744C1.98332 23.3744 1.87684 23.4097 1.77061 23.5159L1.06236 24.1533V1.06232H10.6246L10.6248 5.84355C10.6248 6.12691 10.8729 6.37469 11.156 6.37469H15.9372V24.1533L15.2287 23.5159ZM14.3434 21.0722C14.3434 21.3556 14.0953 21.6033 13.8122 21.6033H3.18754C2.90418 21.6033 2.65641 21.3553 2.65641 21.0722C2.65641 20.7888 2.90444 20.5411 3.18754 20.5411H13.8122C14.0956 20.5408 14.3434 20.7888 14.3434 21.0722ZM7.49991 14.8745H3.18757C2.90421 14.8745 2.65643 14.6264 2.65643 14.3433C2.65643 14.06 2.90446 13.8122 3.18757 13.8122H7.49991C7.78326 13.8122 8.03104 14.0602 8.03104 14.3433C8.03104 14.6264 7.78326 14.8745 7.49991 14.8745ZM6.72913 17.7078H3.18757C2.90421 17.7078 2.65643 17.4597 2.65643 17.1766C2.65643 16.8933 2.90446 16.6455 3.18757 16.6455H6.72913C7.01248 16.6455 7.26026 16.8935 7.26026 17.1766C7.26026 17.4597 7.01248 17.7078 6.72913 17.7078ZM13.8122 17.7078H12.0415C11.7581 17.7078 11.5103 17.4597 11.5103 17.1766C11.5103 16.8933 11.7584 16.6455 12.0415 16.6455H13.8122C14.0956 16.6455 14.3434 16.8935 14.3434 17.1766C14.3434 17.4597 14.0956 17.7078 13.8122 17.7078ZM6.72913 12.0412H3.18757C2.90421 12.0412 2.65643 11.7931 2.65643 11.51C2.65643 11.2267 2.90446 10.9789 3.18757 10.9789H6.72913C7.01248 10.9789 7.26026 11.2269 7.26026 11.51C7.26026 11.7931 7.01248 12.0412 6.72913 12.0412ZM7.49991 9.20785H3.18757C2.90421 9.20785 2.65643 8.95982 2.65643 8.67671C2.65643 8.39336 2.90446 8.14558 3.18757 8.14558H7.49991C7.78326 8.14558 8.03104 8.39361 8.03104 8.67671C8.03104 8.96007 7.78326 9.20785 7.49991 9.20785Z"
        fill="#171717" />
</svg>
