<svg width="85" height="22" viewBox="0 0 85 22" fill="none" xmlns="http://www.w3.org/2000/svg">
    <path
        d="M31.052 16.096C30.204 16.096 29.44 15.912 28.76 15.544C28.08 15.168 27.544 14.652 27.152 13.996C26.768 13.34 26.576 12.608 26.576 11.8C26.576 10.992 26.768 10.26 27.152 9.604C27.544 8.948 28.08 8.436 28.76 8.068C29.44 7.692 30.204 7.504 31.052 7.504C31.892 7.504 32.652 7.692 33.332 8.068C34.012 8.436 34.544 8.948 34.928 9.604C35.312 10.252 35.504 10.984 35.504 11.8C35.504 12.616 35.312 13.352 34.928 14.008C34.544 14.656 34.012 15.168 33.332 15.544C32.652 15.912 31.892 16.096 31.052 16.096ZM31.052 15.028C31.668 15.028 32.22 14.888 32.708 14.608C33.204 14.328 33.592 13.944 33.872 13.456C34.16 12.96 34.304 12.408 34.304 11.8C34.304 11.192 34.16 10.644 33.872 10.156C33.592 9.66 33.204 9.272 32.708 8.992C32.22 8.712 31.668 8.572 31.052 8.572C30.436 8.572 29.876 8.712 29.372 8.992C28.876 9.272 28.484 9.66 28.196 10.156C27.916 10.644 27.776 11.192 27.776 11.8C27.776 12.408 27.916 12.96 28.196 13.456C28.484 13.944 28.876 14.328 29.372 14.608C29.876 14.888 30.436 15.028 31.052 15.028ZM42.9541 16L41.1421 13.42C40.9181 13.436 40.7421 13.444 40.6141 13.444H38.5381V16H37.3381V7.6H40.6141C41.7021 7.6 42.5581 7.86 43.1821 8.38C43.8061 8.9 44.1181 9.616 44.1181 10.528C44.1181 11.176 43.9581 11.728 43.6381 12.184C43.3181 12.64 42.8621 12.972 42.2701 13.18L44.2621 16H42.9541ZM40.5781 12.424C41.3381 12.424 41.9181 12.26 42.3181 11.932C42.7181 11.604 42.9181 11.136 42.9181 10.528C42.9181 9.92 42.7181 9.456 42.3181 9.136C41.9181 8.808 41.3381 8.644 40.5781 8.644H38.5381V12.424H40.5781ZM51.8769 11.752H53.0289V15.028C52.6129 15.372 52.1289 15.636 51.5769 15.82C51.0249 16.004 50.4489 16.096 49.8489 16.096C49.0009 16.096 48.2369 15.912 47.5569 15.544C46.8769 15.168 46.3409 14.656 45.9489 14.008C45.5649 13.352 45.3729 12.616 45.3729 11.8C45.3729 10.984 45.5649 10.248 45.9489 9.592C46.3409 8.936 46.8769 8.424 47.5569 8.056C48.2449 7.688 49.0169 7.504 49.8729 7.504C50.5449 7.504 51.1529 7.616 51.6969 7.84C52.2489 8.056 52.7169 8.376 53.1009 8.8L52.3569 9.544C51.6849 8.896 50.8729 8.572 49.9209 8.572C49.2809 8.572 48.7049 8.712 48.1929 8.992C47.6889 9.264 47.2929 9.648 47.0049 10.144C46.7169 10.632 46.5729 11.184 46.5729 11.8C46.5729 12.408 46.7169 12.96 47.0049 13.456C47.2929 13.944 47.6889 14.328 48.1929 14.608C48.7049 14.888 49.2769 15.028 49.9089 15.028C50.6609 15.028 51.3169 14.848 51.8769 14.488V11.752ZM60.6784 13.9H56.2144L55.2904 16H54.0544L57.8584 7.6H59.0464L62.8624 16H61.6024L60.6784 13.9ZM60.2584 12.94L58.4464 8.824L56.6344 12.94H60.2584ZM71.3395 7.6V16H70.3555L65.3155 9.736V16H64.1155V7.6H65.0995L70.1395 13.864V7.6H71.3395ZM73.8538 7.6H75.0538V16H73.8538V7.6ZM81.3246 16.096C80.4846 16.096 79.7246 15.912 79.0446 15.544C78.3726 15.168 77.8446 14.656 77.4606 14.008C77.0766 13.352 76.8846 12.616 76.8846 11.8C76.8846 10.984 77.0766 10.252 77.4606 9.604C77.8446 8.948 78.3766 8.436 79.0566 8.068C79.7366 7.692 80.4966 7.504 81.3366 7.504C81.9926 7.504 82.5926 7.616 83.1366 7.84C83.6806 8.056 84.1446 8.38 84.5286 8.812L83.7486 9.568C83.1166 8.904 82.3286 8.572 81.3846 8.572C80.7606 8.572 80.1966 8.712 79.6926 8.992C79.1886 9.272 78.7926 9.66 78.5046 10.156C78.2246 10.644 78.0846 11.192 78.0846 11.8C78.0846 12.408 78.2246 12.96 78.5046 13.456C78.7926 13.944 79.1886 14.328 79.6926 14.608C80.1966 14.888 80.7606 15.028 81.3846 15.028C82.3206 15.028 83.1086 14.692 83.7486 14.02L84.5286 14.776C84.1446 15.208 83.6766 15.536 83.1246 15.76C82.5806 15.984 81.9806 16.096 81.3246 16.096Z"
        fill="#51A148" />
    <circle cx="11" cy="11" r="10.5" stroke="#51A148" />
    <circle cx="11" cy="11" r="8.75" stroke="#51A148" stroke-width="0.5" />
    <path
        d="M11.225 8.25759C11.2102 8.28716 11.1849 8.31011 11.154 8.3218C11.5549 8.93232 11.8177 9.6229 11.924 10.3455C12.0755 9.77659 12.3178 9.23583 12.6416 8.74416C13.0122 8.18787 13.3525 7.91508 13.3669 7.90418C13.3945 7.8822 13.4298 7.87212 13.4648 7.87622C13.4999 7.88023 13.532 7.89797 13.5539 7.92564C13.5996 7.98322 13.59 8.06693 13.5324 8.11265C13.5292 8.11522 13.2045 8.37688 12.8568 8.90212C12.5364 9.38534 12.13 10.1994 12.0125 11.3247C12.0089 11.3585 11.9925 11.3895 11.9666 11.4115C11.9404 11.8029 11.8687 12.1899 11.7528 12.5646C12.6958 12.3294 13.5442 11.8111 14.1842 11.0794C14.8239 10.3477 15.2244 9.43776 15.3316 8.4716C15.4389 7.5056 15.2479 6.52989 14.7842 5.67572C14.027 5.78783 13.308 6.08114 12.6883 6.5306C12.0687 6.98006 11.5668 7.57247 11.225 8.25744L11.225 8.25759Z"
        fill="#51A148" />
    <path
        d="M7.17423 10.1906C7.52819 10.7761 8.0044 11.2783 8.57033 11.663C9.1362 12.0476 9.77847 12.3056 10.4531 12.4192L8.66789 8.8589C8.65128 8.82736 8.64816 8.79041 8.65907 8.75651C8.66999 8.72254 8.69406 8.69439 8.72593 8.67839C8.7578 8.66239 8.79476 8.65988 8.82853 8.67141C8.86223 8.68293 8.88996 8.70755 8.90535 8.73969L10.7726 12.4621C10.8011 12.465 10.8296 12.4676 10.8579 12.4699C10.8843 12.4678 10.9106 12.4654 10.9371 12.4627V12.4627C11.3477 11.5259 11.4456 10.4817 11.2164 9.48493C10.9871 8.48815 10.4428 7.59177 9.66412 6.92849C8.88542 6.26526 7.91383 5.87049 6.8933 5.80273C6.58355 6.50271 6.44739 7.26718 6.49629 8.03109C6.54525 8.79502 6.77783 9.53582 7.17431 10.1905L7.17423 10.1906Z"
        fill="#51A148" />
    <path
        d="M10.5203 8.52148C10.9574 9.34023 11.5693 11.686 10.5203 14.5193C9.99573 15.9816 9.9782 15.9991 9.68018 16.7417"
        stroke="#51A148" />
</svg>
