<svg width="26" height="24" viewBox="0 0 26 24" fill="none" xmlns="http://www.w3.org/2000/svg">
    <path
        d="M10.5539 2.34473C8.99879 2.34473 7.5073 2.96256 6.40768 4.06218C5.30806 5.1618 4.69043 6.65329 4.69043 8.20836C4.69043 9.76343 5.30806 11.2549 6.40768 12.3545C7.5073 13.4542 8.99879 14.072 10.5539 14.072C12.1089 14.072 13.6004 13.4542 14.7 12.3545C15.7997 11.2549 16.4175 9.76343 16.4175 8.20836C16.4157 6.65385 15.7973 5.16336 14.6981 4.06414C13.5989 2.96492 12.1086 2.34669 10.5539 2.34473ZM15.1855 7.62194H14.0376C13.9917 6.4811 13.7056 5.36264 13.1985 4.33941C14.2995 5.09958 15.0226 6.29424 15.1855 7.62194ZM9.96764 3.70881V7.62194H8.24114C8.37209 5.64278 9.13263 4.19095 9.96764 3.70881ZM9.96764 8.79504V12.7082C9.13268 12.226 8.37211 10.7742 8.24114 8.79504H9.96764ZM11.1403 12.7084V8.79504H12.8668C12.7356 10.7742 11.9753 12.226 11.1403 12.7082V12.7084ZM11.1403 7.62214V3.70901C11.9752 4.19119 12.7356 5.64318 12.8668 7.62234L11.1403 7.62214ZM7.90918 4.33961C7.40206 5.36284 7.11624 6.48131 7.0703 7.62214H5.92238C6.08514 6.29439 6.8084 5.09973 7.90918 4.33961ZM5.92238 8.79499H7.0703C7.11624 9.93582 7.40209 11.0543 7.90918 12.0775C6.8084 11.3173 6.08512 10.1227 5.92238 8.79499ZM13.1984 12.0775C13.7055 11.0543 13.9915 9.93582 14.0375 8.79499H15.1854C15.0224 10.1227 14.2994 11.3174 13.1984 12.0775Z"
        fill="white" />
    <path
        d="M21.1087 13.4861V2.93172C21.1079 2.15446 20.7987 1.40922 20.249 0.859683C19.6995 0.309948 18.9542 0.000753887 18.177 0H2.93187C2.15461 0.000785299 1.40937 0.309998 0.859683 0.859683C0.310149 1.40922 0.000954924 2.15446 0 2.93172V13.4861C0.000981611 14.2634 0.310195 15.0086 0.859683 15.5582C1.40942 16.1079 2.15466 16.4171 2.93187 16.4179H7.03623V19.3498C7.03623 19.5718 7.16149 19.775 7.36017 19.8744C7.55885 19.9737 7.7966 19.9521 7.97428 19.8188L12.5088 16.4179H18.177C18.9543 16.4171 19.6995 16.1079 20.2491 15.5582C20.7988 15.0087 21.108 14.2634 21.1088 13.4862L21.1087 13.4861ZM12.3133 15.2452C12.1865 15.2452 12.0632 15.2862 11.9619 15.3624L8.20897 18.1769V15.8316C8.20897 15.6759 8.14732 15.5267 8.03718 15.4168C7.92724 15.3069 7.77804 15.2452 7.62254 15.2452H2.93176C2.46529 15.2446 2.01825 15.0593 1.68845 14.7294C1.35865 14.3996 1.17309 13.9526 1.17269 13.4861V2.93172C1.17308 2.46525 1.35861 2.01821 1.68845 1.68841C2.01829 1.35861 2.4653 1.17325 2.93176 1.17265H18.1769C18.6433 1.17324 19.0904 1.35857 19.4202 1.68841C19.75 2.01825 19.9353 2.46526 19.9359 2.93172V13.4861C19.9353 13.9526 19.75 14.3996 19.4202 14.7294C19.0903 15.0592 18.6433 15.2446 18.1769 15.2452H12.3133Z"
        fill="white" />
    <path
        d="M22.8683 3.51905C22.5446 3.51905 22.2821 3.78154 22.2821 4.10528C22.2821 4.42921 22.5446 4.6917 22.8683 4.6917C23.3348 4.69229 23.7819 4.87762 24.1117 5.20746C24.4415 5.5373 24.627 5.98431 24.6274 6.45077V17.0052C24.627 17.4717 24.4415 17.9187 24.1117 18.2485C23.7818 18.5783 23.3348 18.7637 22.8683 18.7643H18.1776C18.0221 18.7643 17.8729 18.8259 17.7629 18.9359C17.6528 19.0458 17.5911 19.195 17.5911 19.3507V21.6962L13.8382 18.8815C13.7139 18.7882 13.5574 18.7484 13.4035 18.7704C13.2498 18.7923 13.1108 18.8746 13.0175 18.9991C12.8234 19.258 12.876 19.6255 13.1351 19.8197L17.8259 23.3378C17.9272 23.4142 18.0507 23.4554 18.1775 23.455C18.333 23.4552 18.4822 23.3934 18.5922 23.2835C18.7021 23.1735 18.764 23.0243 18.764 22.8688V19.9369H22.8683C23.6456 19.9361 24.3908 19.6269 24.9405 19.0772C25.4901 18.5277 25.7992 17.7824 25.8002 17.0052V6.45076C25.7992 5.6735 25.49 4.92826 24.9405 4.37873C24.3908 3.82899 23.6455 3.5198 22.8683 3.51904L22.8683 3.51905Z"
        fill="white" />
</svg>
