<svg width="23" height="28" viewBox="0 0 23 28" fill="none" xmlns="http://www.w3.org/2000/svg">
    <path
        d="M20.8818 17.9161V17.8555V12.4686C20.8818 10.1383 20.0043 7.89886 18.4001 6.20404C17.2804 4.99361 15.8276 4.14622 14.254 3.69216C14.3448 3.41984 14.375 3.14752 14.375 2.87499C14.375 1.30123 13.0738 0 11.5 0C9.92624 0 8.62501 1.30123 8.62501 2.87499C8.62501 3.14731 8.6552 3.41963 8.74598 3.69216C7.17221 4.14603 5.71961 4.99339 4.59991 6.20404C2.99594 7.89875 2.11819 10.1384 2.11819 12.4686L2.1184 17.8555V17.9161C0.907963 18.1884 0 19.2779 0 20.5794C0 22.0926 1.21044 23.303 2.72362 23.303H7.86838V23.6057C7.86838 25.6032 9.50251 27.2373 11.5 27.2373C13.4974 27.2373 15.1315 25.6032 15.1315 23.6057V23.303H20.2763C21.7895 23.303 22.9999 22.0926 22.9999 20.5794C23.0001 19.2779 22.0922 18.1884 20.8817 17.9161H20.8818ZM11.5001 1.2106C12.4081 1.2106 13.1646 1.9672 13.1646 2.87516C13.1646 3.05671 13.1345 3.23826 13.0739 3.41979C12.8016 3.38961 12.5292 3.35921 12.2265 3.32902H12.1055H10.8949H10.7739C10.5016 3.32902 10.1989 3.35921 9.92653 3.41979C9.86595 3.23825 9.83576 3.0567 9.83576 2.87516C9.83576 1.9672 10.5923 1.2106 11.5001 1.2106ZM3.32892 12.4687C3.32892 10.441 4.08551 8.50419 5.47774 7.05148C6.96055 5.4473 9.07917 4.5396 11.2581 4.5396H11.7725C13.9515 4.5396 16.0398 5.44757 17.5529 7.02133C18.9451 8.5043 19.7017 10.4108 19.7017 12.4385L19.7015 17.8557H3.3289L3.32892 12.4687ZM11.5001 26.0268C10.1684 26.0268 9.07895 24.9373 9.07895 23.6056C9.07895 23.5149 9.07895 23.3937 9.10914 23.3029H13.8908C13.8908 23.3937 13.921 23.5149 13.921 23.6056C13.9212 24.9373 12.8317 26.0268 11.5001 26.0268H11.5001ZM20.2765 22.0924H2.72364C1.87626 22.0924 1.21046 21.4266 1.21046 20.5793C1.21046 19.7319 1.87626 19.0661 2.72364 19.0661H20.2765C21.1239 19.0661 21.7897 19.7319 21.7897 20.5793C21.7897 21.4266 21.1239 22.0924 20.2765 22.0924Z"
        fill="white" />
</svg>
