<svg width="21" height="30" viewBox="0 0 21 30" fill="none" xmlns="http://www.w3.org/2000/svg">
    <path
        d="M3.06776 4.80068H5.39976V4.31703C5.39976 3.91789 5.55837 3.53487 5.84043 3.25284C6.12277 2.9705 6.50548 2.81188 6.90462 2.81188H8.57909C8.69906 2.12981 9.13454 1.54436 9.75343 1.23317C10.3726 0.922277 11.1023 0.922277 11.7212 1.23317C12.3401 1.54435 12.7755 2.12984 12.8955 2.81188H14.5783C14.9774 2.81188 15.3602 2.9705 15.6425 3.25284C15.9245 3.5349 16.0832 3.91789 16.0832 4.31703V4.80068H18.4152C18.9634 4.80068 19.4892 5.01842 19.8768 5.40631C20.2644 5.79392 20.4824 6.31967 20.4824 6.86793V26.9327C20.4824 27.481 20.2644 28.0068 19.8768 28.3944C19.4892 28.782 18.9634 29 18.4152 29H3.06736C2.51911 29 1.99335 28.782 1.60574 28.3944C1.21813 28.0068 1.00011 27.481 1.00011 26.9327V6.86793C1.00011 6.31968 1.21813 5.79392 1.60574 5.40631C1.99335 5.01842 2.51909 4.80068 3.06736 4.80068H3.06776ZM15.2564 4.31703C15.2541 3.94355 14.9518 3.64103 14.5784 3.63901H12.5111C12.2781 3.62372 12.097 3.42992 12.0975 3.1966C12.114 2.82111 11.975 2.45542 11.7137 2.1855C11.4524 1.91556 11.0916 1.76472 10.7158 1.76876C10.34 1.7728 9.98239 1.93113 9.72684 2.20655C9.47132 2.48198 9.34038 2.85055 9.36461 3.22548C9.36461 3.33508 9.32106 3.44034 9.24349 3.51792C9.16591 3.5955 9.06093 3.63904 8.95134 3.63904H6.8841C6.51033 3.64106 6.20809 3.94359 6.20578 4.31707V6.1155C6.20809 6.4884 6.51119 6.78948 6.8841 6.78948H14.5779C14.9508 6.78948 15.2537 6.4884 15.256 6.1155L15.2564 4.31703ZM1.82741 26.9327C1.82741 27.2615 1.95805 27.577 2.19051 27.8097C2.42324 28.0422 2.73875 28.1728 3.06754 28.1728H18.4153C18.7441 28.1728 19.0596 28.0422 19.2924 27.8097C19.5248 27.577 19.6555 27.2615 19.6555 26.9327V6.86786C19.6555 6.5388 19.5248 6.22358 19.2924 5.99083C19.0596 5.7581 18.7441 5.62745 18.4153 5.62745H16.0833V6.11542C16.0822 6.5137 15.9233 6.89551 15.6412 7.17703C15.3589 7.45822 14.9768 7.61626 14.5784 7.61626H6.90454C6.50626 7.61626 6.12415 7.45822 5.84175 7.17703C5.5597 6.89555 5.40079 6.51371 5.39964 6.11542V5.62745H3.06764C2.73887 5.62745 2.42335 5.75809 2.19061 5.99083C1.95816 6.22357 1.82751 6.53879 1.82751 6.86786L1.82741 26.9327ZM5.70955 13.1811H13.0525C13.2809 13.1811 13.4658 12.9959 13.4658 12.7678C13.4658 12.5394 13.2809 12.3542 13.0525 12.3542H5.70955C5.48113 12.3542 5.29598 12.5394 5.29598 12.7678C5.29598 12.9959 5.48113 13.1811 5.70955 13.1811ZM14.6733 12.7675L14.6736 12.7678C14.6736 12.9902 14.8074 13.1906 15.013 13.2757C15.2183 13.3607 15.4548 13.3137 15.612 13.1566C15.7695 12.9991 15.8165 12.7626 15.7314 12.5573C15.6463 12.3516 15.4456 12.2178 15.2232 12.2178C15.0767 12.2178 14.9363 12.2764 14.833 12.3802C14.7298 12.4843 14.6724 12.6253 14.6736 12.7718L14.6733 12.7675ZM5.70955 15.9592L13.0525 15.9595C13.2809 15.9595 13.4658 15.7743 13.4658 15.5459C13.4658 15.3178 13.2809 15.1326 13.0525 15.1326H5.70955C5.48113 15.1326 5.29598 15.3178 5.29598 15.5459C5.29598 15.7743 5.48113 15.9595 5.70955 15.9595V15.9592ZM14.6733 15.5456L14.6736 15.5459C14.6718 15.7688 14.8048 15.9704 15.0101 16.057C15.2155 16.1435 15.4525 16.0973 15.6106 15.9404C15.7689 15.7836 15.8165 15.5468 15.7317 15.3406C15.6469 15.1347 15.4462 15.0003 15.2232 15.0003C14.9204 15.0026 14.6756 15.2474 14.6736 15.5502L14.6733 15.5456ZM5.70955 18.7373L13.0525 18.7379C13.2809 18.7379 13.4658 18.5527 13.4658 18.3243C13.4658 18.0959 13.2809 17.911 13.0525 17.911H5.70955C5.48113 17.911 5.29598 18.0959 5.29598 18.3243C5.29598 18.5527 5.48113 18.7379 5.70955 18.7379V18.7373ZM14.6733 18.3237L14.6736 18.3243C14.6736 18.5467 14.8074 18.7474 15.013 18.8325C15.2183 18.9175 15.4548 18.8705 15.612 18.7131C15.7695 18.5559 15.8165 18.3194 15.7314 18.1138C15.6463 17.9084 15.4456 17.7743 15.2232 17.7743C15.0767 17.7743 14.9363 17.8329 14.833 17.937C14.7298 18.0411 14.6724 18.1818 14.6736 18.3283L14.6733 18.3237ZM5.70955 21.5198L13.0525 21.5203C13.2809 21.5203 13.4658 21.3352 13.4658 21.1068C13.4658 20.8787 13.2809 20.6935 13.0525 20.6935H5.70955C5.48113 20.6935 5.29598 20.8786 5.29598 21.1068C5.29598 21.3352 5.48113 21.5203 5.70955 21.5203V21.5198ZM14.6733 21.1062L14.6736 21.1068C14.6736 21.3291 14.8074 21.5299 15.013 21.6149C15.2183 21.7 15.4548 21.653 15.612 21.4958C15.7695 21.3384 15.8165 21.1019 15.7314 20.8965C15.6463 20.6909 15.4456 20.5571 15.2232 20.5571C15.0767 20.5571 14.9363 20.6153 14.833 20.7194C14.7298 20.8236 14.6724 20.9643 14.6736 21.1111L14.6733 21.1062Z"
        fill="#171717" stroke="#171717" stroke-width="0.3" />
</svg>
