<svg width="23" height="24" viewBox="0 0 23 24" fill="none" xmlns="http://www.w3.org/2000/svg">
    <path
        d="M8.00546 8.86162L14.9339 4.65671C14.8822 4.40467 14.8552 4.14424 14.8552 3.87715C14.8552 2.80684 15.2895 1.8372 15.991 1.13578C16.78 0.40442 17.6405 0 18.7324 0C19.8027 0 20.7723 0.434329 21.4737 1.13578C22.1751 1.8372 22.6095 2.80689 22.6095 3.87715C22.6095 4.94575 22.1752 5.91487 21.4737 6.61667C20.7723 7.31998 19.8026 7.75431 18.7324 7.75431C17.6638 7.75431 16.6946 7.31998 15.9928 6.61852C15.717 6.3423 15.482 6.02515 15.2991 5.67711L8.57158 9.76055C8.8491 10.3448 9.00442 10.998 9.00442 11.6874C9.00442 12.456 8.81171 13.1794 8.47186 13.8124L15.4565 18.0511C15.6101 17.809 15.7894 17.5854 15.9912 17.3834C16.6949 16.6801 17.664 16.2457 18.7326 16.2457C19.8029 16.2457 20.7725 16.6801 21.474 17.3815C22.2053 18.1706 22.6097 19.0311 22.6097 20.1229C22.6097 21.1906 22.1754 22.1595 21.4736 22.862C20.7441 23.5915 19.7646 24 18.7326 24C17.6649 24 16.696 23.5657 15.9935 22.8639C15.264 22.1344 14.8555 21.1548 14.8555 20.1229C14.8555 19.7418 14.911 19.3729 15.014 19.0247L7.86178 14.6842C7.79593 14.7579 7.72786 14.8316 7.6555 14.8987C6.84228 15.6971 5.72826 16.1898 4.50247 16.1898C3.26088 16.1898 2.13552 15.6851 1.32083 14.8708C0.504417 14.0563 0 12.93 0 11.6875C0 10.4449 0.504656 9.31865 1.31897 8.5041C2.23543 7.6544 3.23393 7.18512 4.50247 7.18512C5.74316 7.18512 6.86904 7.68978 7.68488 8.50505C7.79834 8.61814 7.9053 8.73719 8.00612 8.86163L8.00546 8.86162ZM20.7195 18.1357C20.2115 17.6277 19.5084 17.313 18.7322 17.313C17.9554 17.313 17.2521 17.6274 16.7439 18.1348C16.2365 18.6432 15.9221 19.3464 15.9221 20.123C15.9221 20.9004 16.2361 21.6033 16.7432 22.1101C17.2519 22.6191 17.9548 22.933 18.7322 22.933C19.5095 22.933 20.2124 22.619 20.7193 22.112C21.2282 21.6032 21.5422 20.9004 21.5422 20.123C21.5422 19.4097 21.2455 18.6279 20.7195 18.1357ZM20.7195 1.88986C20.2115 1.38187 19.5084 1.06717 18.7322 1.06717C17.9675 1.06717 17.2743 1.37166 16.7677 1.86534C16.2229 2.44771 15.9221 3.06565 15.9221 3.8772C15.9221 4.65395 16.2365 5.35726 16.7439 5.86544C17.2523 6.37286 17.9556 6.68723 18.7322 6.68723C19.5086 6.68723 20.2115 6.37251 20.7195 5.86454C21.2278 5.35712 21.5422 4.6538 21.5422 3.87725C21.5422 3.10084 21.2274 2.39795 20.7195 1.88996V1.88986ZM6.9312 9.25732C6.31141 8.63624 5.4519 8.25234 4.50192 8.25234C3.56461 8.25234 2.71515 8.62678 2.09574 9.23337C1.43242 9.94131 1.06638 10.7011 1.06638 11.6876C1.06638 12.6362 1.45123 13.4958 2.07231 14.1168C2.69282 14.7383 3.55237 15.1228 4.50192 15.1228C5.43976 15.1228 6.28964 14.7485 6.90758 14.1419C7.57128 13.4342 7.93713 12.674 7.93713 11.6876C7.93713 10.7385 7.55228 9.87936 6.9312 9.25737V9.25732Z"
        fill="black" />
</svg>
