<svg width="26" height="31" viewBox="0 0 26 31" fill="none" xmlns="http://www.w3.org/2000/svg">
    <path
        d="M16.9758 21.0566H8.98375C8.23687 21.0566 7.62988 21.6632 7.62988 22.409V26.8365C7.62988 27.5823 8.23738 28.1889 8.98375 28.1889H16.9758C17.722 28.1889 18.329 27.5823 18.329 26.8365V22.409C18.329 21.663 17.722 21.0566 16.9758 21.0566ZM17.62 26.8366C17.62 27.191 17.3311 27.4793 16.9758 27.4793H8.98375C8.62847 27.4793 8.3391 27.1908 8.3391 26.8366V22.409C8.3391 22.0546 8.62802 21.7664 8.98375 21.7664H16.9758C17.3311 21.7664 17.62 22.0548 17.62 22.409V26.8366Z"
        fill="#171717" stroke="#171717" stroke-width="0.2" />
    <path
        d="M15.7387 25H14.5479C14.4031 25 14.2861 25.2235 14.2861 25.5C14.2861 25.7765 14.4031 26 14.5479 26H15.7387C15.8834 26 16.0004 25.7765 16.0004 25.5C16.0004 25.2232 15.8834 25 15.7387 25Z"
        fill="#171717" stroke="#171717" stroke-width="0.2" />
    <path
        d="M13.2017 25H10.2268C10.1014 25 10 25.2235 10 25.5C10 25.7765 10.1014 26 10.2268 26H13.2017C13.3272 26 13.4286 25.7765 13.4286 25.5C13.4286 25.2232 13.3269 25 13.2017 25Z"
        fill="#171717" stroke="#171717" stroke-width="0.2" />
    <path
        d="M24.6448 28.4735H20.5641C20.9789 28.0499 21.2371 27.4716 21.2371 26.8334C21.2371 26.8062 21.2342 26.779 21.2276 26.7522L19.2226 18.2057C18.9198 17.243 18.3486 15.9625 16.8861 15.9625L16.0424 15.9623L15.0641 15.3989C15.811 15.0431 16.4532 14.504 16.9313 13.8379H19.3842C19.5804 13.8379 19.739 13.6793 19.739 13.4831C19.739 13.4751 19.735 13.4692 19.7346 13.4619V12.1551C20.3932 12.0164 20.8851 11.505 20.8851 10.893V8.1959C20.8851 7.62119 20.45 7.13738 19.8525 6.96459C19.3578 3.54713 16.4536 1 12.9795 1C9.50541 1 6.60149 3.54718 6.10765 6.96346C5.51012 7.13645 5.07541 7.62006 5.07541 8.19477V10.8919C5.07541 11.6105 5.75036 12.1947 6.57992 12.1947C7.40948 12.1947 8.08488 11.6105 8.08488 10.8919V8.19477C8.08488 7.55102 7.54178 7.01788 6.83278 6.91322C7.33894 3.92141 9.91243 1.70938 12.9797 1.70938C16.0472 1.70938 18.6209 3.92141 19.1278 6.91345C18.4188 7.01809 17.8757 7.55125 17.8757 8.195V10.8921C17.8757 11.5041 18.3673 12.0155 19.0254 12.1542V13.128H17.3534C17.6647 12.4878 17.8446 11.7728 17.8446 11.0145V8.07199C17.8446 5.39257 15.6627 3.21282 12.9803 3.21282C10.2984 3.21282 8.11648 5.39274 8.11648 8.07199V11.0145C8.11648 12.9579 9.26703 14.6334 10.9207 15.4104L9.95886 15.9619H9.07375C7.68533 15.9619 7.09754 17.1561 6.73033 18.2309L4.73288 26.7519C4.72647 26.7787 4.72337 26.8055 4.72337 26.8331C4.72337 27.4714 4.98154 28.0496 5.39634 28.4733L1.35484 28.4735C1.15862 28.4735 1 28.6321 1 28.8284V30.096C1 30.2922 1.15862 30.4508 1.35484 30.4508H24.6452C24.8414 30.4508 25 30.2922 25 30.096V28.8279C25 28.6321 24.8414 28.4735 24.6452 28.4735L24.6448 28.4735ZM7.37456 8.19552V10.8927C7.37456 11.2143 7.01043 11.4858 6.57927 11.4858C6.1481 11.4858 5.78442 11.2141 5.78442 10.8927V8.19552C5.78442 7.87342 6.14855 7.60133 6.57927 7.60133C7.01021 7.60089 7.37456 7.87343 7.37456 8.19552ZM18.5845 10.8929V8.19575C18.5845 7.87365 18.9482 7.60156 19.3793 7.60156C19.8109 7.60156 20.1751 7.87366 20.1751 8.19575V10.8929C20.1751 11.2146 19.811 11.486 19.3793 11.486C18.9482 11.486 18.5845 11.2139 18.5845 10.8929ZM13.9984 17.6775H13.7426L14.7074 16.0126L15.4611 16.4462L14.353 18.3525V18.0324C14.3532 17.8366 14.1946 17.6775 13.9984 17.6775L13.9984 17.6775ZM12.979 15.8741C12.9854 15.8741 12.9914 15.8732 12.9982 15.8732H13.9442L12.9907 17.5278L12.0304 15.8732H12.9595C12.9666 15.8732 12.9725 15.8741 12.9789 15.8741H12.979ZM8.82482 11.0149V8.07246C8.82482 5.7846 10.6886 3.92279 12.9794 3.92279C15.2703 3.92279 17.1339 5.7846 17.1339 8.07246V11.0149C17.1339 11.7875 16.9173 12.5084 16.5481 13.1285L14.7436 13.1283C14.579 12.815 14.202 12.6004 13.751 12.6004H12.2084C11.6018 12.6004 11.1271 12.988 11.1271 13.4824C11.1271 13.9771 11.6018 14.364 12.2084 14.364H13.751C14.201 14.364 14.5775 14.1498 14.7425 13.8377H16.0161C15.2613 14.6474 14.1894 15.1584 12.9988 15.1637H12.9608C10.6782 15.1531 8.82483 13.2963 8.82483 11.0149L8.82482 11.0149ZM14.1227 13.4822C14.1227 13.5346 13.982 13.6548 13.751 13.6548H12.2084C11.9671 13.6548 11.8368 13.5324 11.8368 13.4822C11.8368 13.4322 11.9671 13.3097 12.2084 13.3097H13.751C13.982 13.3097 14.1227 13.4296 14.1227 13.4822ZM11.2802 16.0219L12.2357 17.6779H11.9602C11.764 17.6779 11.6054 17.8365 11.6054 18.0328V18.2965L10.5376 16.4481L11.2802 16.0219ZM5.43171 26.8716L7.4099 18.4265C7.83753 17.1793 8.31914 16.6709 9.07197 16.6709H9.84648L11.6523 19.7963C11.6572 19.8052 11.6672 19.8087 11.6731 19.8171C11.6979 19.8534 11.7276 19.8826 11.7638 19.9074C11.7767 19.9158 11.7871 19.9253 11.801 19.9322C11.8497 19.9565 11.9021 19.9738 11.9596 19.9738H11.9601C12.0185 19.9738 12.0711 19.9558 12.1196 19.9311C12.1251 19.9282 12.1311 19.9295 12.1364 19.9266C12.1496 19.9187 12.1576 19.9063 12.1696 19.8974C12.1895 19.8826 12.2076 19.8682 12.224 19.8494C12.2388 19.8322 12.2503 19.8132 12.2616 19.7935C12.2731 19.7742 12.2835 19.7554 12.2908 19.734C12.2992 19.7101 12.3023 19.6864 12.3052 19.6616C12.3067 19.6472 12.3136 19.6344 12.3136 19.6196V18.3871H12.6456L12.6724 18.4327C12.6943 18.4699 12.7299 18.4927 12.7635 18.5174C12.7664 18.5199 12.7684 18.5223 12.7715 18.525C12.7883 18.5365 12.8012 18.5506 12.8202 18.5593C12.8297 18.5648 12.8405 18.5652 12.8498 18.5697C12.8737 18.5812 12.8974 18.5896 12.9233 18.5949C12.9436 18.5993 12.9624 18.6017 12.9828 18.6028C13.0071 18.6037 13.0308 18.6028 13.0551 18.5984C13.0779 18.5949 13.0991 18.5885 13.121 18.58C13.133 18.5756 13.1458 18.5761 13.1573 18.5701C13.1668 18.5657 13.1721 18.5573 13.1812 18.5517C13.2016 18.5393 13.2188 18.525 13.2367 18.5086C13.2547 18.4918 13.2704 18.4754 13.2847 18.4555C13.2907 18.4471 13.2991 18.4427 13.3047 18.4336L13.331 18.388H13.6431V19.67C13.6431 19.6849 13.65 19.6972 13.6515 19.7116C13.6544 19.7364 13.6579 19.7603 13.6659 19.784C13.6734 19.8052 13.6838 19.824 13.6947 19.8435C13.7062 19.8634 13.7175 19.8822 13.7327 19.8994C13.7487 19.9178 13.767 19.9322 13.7863 19.947C13.7982 19.9558 13.8062 19.9682 13.8194 19.9762C13.825 19.9791 13.8314 19.9782 13.8367 19.9806C13.8854 20.0058 13.9382 20.0238 13.9969 20.0238H13.9973C14.0553 20.0238 14.1073 20.0069 14.1559 19.9822C14.1692 19.9753 14.1803 19.9658 14.1931 19.9574C14.2287 19.9331 14.2586 19.9039 14.2833 19.8682C14.2893 19.8598 14.2993 19.8563 14.3041 19.8474L16.15 16.6711H16.885C17.6739 16.6711 18.155 17.1771 18.5375 18.3927L20.5256 26.8718C20.5048 27.7582 19.7759 28.4728 18.8828 28.4728L7.07483 28.4723C6.18173 28.4728 5.4528 27.7578 5.43202 26.8713L5.43171 26.8716ZM24.2894 29.7406H1.70866V29.1823H24.2899V29.7406H24.2894Z"
        fill="#171717" stroke="#171717" stroke-width="0.2" />
</svg>
