<svg width="16" height="17" viewBox="0 0 16 17" fill="none" xmlns="http://www.w3.org/2000/svg">
    <path
        d="M16 15.3953L12.2858 11.6651C13.3654 10.4272 14.0248 8.81097 14.0248 7.03686C14.0248 3.15037 10.8853 0 7.01222 0C3.13916 0 0 3.15004 0 7.03686C0 10.9237 3.13949 14.0737 7.01255 14.0737C8.78086 14.0737 10.3915 13.4121 11.6248 12.3287L15.339 16.0593L16 15.3953ZM0.935117 7.03686C0.935117 3.6687 3.65603 0.938358 7.01255 0.938358C10.3691 0.938358 13.09 3.6687 13.09 7.03686C13.09 10.405 10.3691 13.1354 7.01255 13.1354C3.65603 13.1354 0.935117 10.405 0.935117 7.03686Z"
        fill="#191B6B" />
</svg>
