<svg width="101" height="30" viewBox="0 0 101 30" fill="none" xmlns="http://www.w3.org/2000/svg">
    <rect x="1.5" y="3.5" width="99" height="23" rx="11.5" fill="white" stroke="#191B6B" />
    <path
        d="M39.576 17.056H35.376L34.548 19H32.94L36.72 10.6H38.256L42.048 19H40.416L39.576 17.056ZM39.06 15.832L37.476 12.16L35.904 15.832H39.06ZM45.9603 19.12C45.3123 19.12 44.6843 19.028 44.0763 18.844C43.4763 18.66 43.0003 18.416 42.6483 18.112L43.1883 16.9C43.5323 17.172 43.9523 17.396 44.4483 17.572C44.9523 17.74 45.4563 17.824 45.9603 17.824C46.5843 17.824 47.0483 17.724 47.3523 17.524C47.6643 17.324 47.8203 17.06 47.8203 16.732C47.8203 16.492 47.7323 16.296 47.5563 16.144C47.3883 15.984 47.1723 15.86 46.9083 15.772C46.6443 15.684 46.2843 15.584 45.8283 15.472C45.1883 15.32 44.6683 15.168 44.2683 15.016C43.8763 14.864 43.5363 14.628 43.2483 14.308C42.9683 13.98 42.8283 13.54 42.8283 12.988C42.8283 12.524 42.9523 12.104 43.2003 11.728C43.4563 11.344 43.8363 11.04 44.3403 10.816C44.8523 10.592 45.4763 10.48 46.2123 10.48C46.7243 10.48 47.2283 10.544 47.7243 10.672C48.2203 10.8 48.6483 10.984 49.0083 11.224L48.5163 12.436C48.1483 12.22 47.7643 12.056 47.3643 11.944C46.9643 11.832 46.5763 11.776 46.2003 11.776C45.5843 11.776 45.1243 11.88 44.8203 12.088C44.5243 12.296 44.3763 12.572 44.3763 12.916C44.3763 13.156 44.4603 13.352 44.6283 13.504C44.8043 13.656 45.0243 13.776 45.2883 13.864C45.5523 13.952 45.9123 14.052 46.3683 14.164C46.9923 14.308 47.5043 14.46 47.9043 14.62C48.3043 14.772 48.6443 15.008 48.9243 15.328C49.2123 15.648 49.3563 16.08 49.3563 16.624C49.3563 17.088 49.2283 17.508 48.9723 17.884C48.7243 18.26 48.3443 18.56 47.8323 18.784C47.3203 19.008 46.6963 19.12 45.9603 19.12ZM53.7472 19.12C53.0992 19.12 52.4712 19.028 51.8632 18.844C51.2632 18.66 50.7872 18.416 50.4352 18.112L50.9752 16.9C51.3192 17.172 51.7392 17.396 52.2352 17.572C52.7392 17.74 53.2432 17.824 53.7472 17.824C54.3712 17.824 54.8352 17.724 55.1392 17.524C55.4512 17.324 55.6072 17.06 55.6072 16.732C55.6072 16.492 55.5192 16.296 55.3432 16.144C55.1752 15.984 54.9592 15.86 54.6952 15.772C54.4312 15.684 54.0712 15.584 53.6152 15.472C52.9752 15.32 52.4552 15.168 52.0552 15.016C51.6632 14.864 51.3232 14.628 51.0352 14.308C50.7552 13.98 50.6152 13.54 50.6152 12.988C50.6152 12.524 50.7392 12.104 50.9872 11.728C51.2432 11.344 51.6232 11.04 52.1272 10.816C52.6392 10.592 53.2632 10.48 53.9992 10.48C54.5112 10.48 55.0152 10.544 55.5112 10.672C56.0072 10.8 56.4352 10.984 56.7952 11.224L56.3032 12.436C55.9352 12.22 55.5512 12.056 55.1512 11.944C54.7512 11.832 54.3632 11.776 53.9872 11.776C53.3712 11.776 52.9112 11.88 52.6072 12.088C52.3112 12.296 52.1632 12.572 52.1632 12.916C52.1632 13.156 52.2472 13.352 52.4152 13.504C52.5912 13.656 52.8112 13.776 53.0752 13.864C53.3392 13.952 53.6992 14.052 54.1552 14.164C54.7792 14.308 55.2912 14.46 55.6912 14.62C56.0912 14.772 56.4312 15.008 56.7112 15.328C56.9992 15.648 57.1432 16.08 57.1432 16.624C57.1432 17.088 57.0152 17.508 56.7592 17.884C56.5112 18.26 56.1312 18.56 55.6192 18.784C55.1072 19.008 54.4832 19.12 53.7472 19.12ZM62.542 19.12C61.382 19.12 60.478 18.796 59.83 18.148C59.182 17.492 58.858 16.556 58.858 15.34V10.6H60.418V15.28C60.418 16.928 61.13 17.752 62.554 17.752C63.97 17.752 64.678 16.928 64.678 15.28V10.6H66.214V15.34C66.214 16.556 65.89 17.492 65.242 18.148C64.602 18.796 63.702 19.12 62.542 19.12ZM74.1348 19L72.4188 16.54C72.3468 16.548 72.2388 16.552 72.0948 16.552H70.1988V19H68.6388V10.6H72.0948C72.8228 10.6 73.4548 10.72 73.9908 10.96C74.5348 11.2 74.9508 11.544 75.2388 11.992C75.5268 12.44 75.6708 12.972 75.6708 13.588C75.6708 14.22 75.5148 14.764 75.2028 15.22C74.8988 15.676 74.4588 16.016 73.8828 16.24L75.8148 19H74.1348ZM74.0988 13.588C74.0988 13.052 73.9228 12.64 73.5708 12.352C73.2188 12.064 72.7028 11.92 72.0228 11.92H70.1988V15.268H72.0228C72.7028 15.268 73.2188 15.124 73.5708 14.836C73.9228 14.54 74.0988 14.124 74.0988 13.588ZM83.9561 17.692V19H77.6561V10.6H83.7881V11.908H79.2161V14.092H83.2721V15.376H79.2161V17.692H83.9561ZM85.9352 10.6H89.6072C90.5032 10.6 91.2992 10.776 91.9952 11.128C92.6912 11.472 93.2312 11.964 93.6152 12.604C93.9992 13.236 94.1912 13.968 94.1912 14.8C94.1912 15.632 93.9992 16.368 93.6152 17.008C93.2312 17.64 92.6912 18.132 91.9952 18.484C91.2992 18.828 90.5032 19 89.6072 19H85.9352V10.6ZM89.5352 17.68C90.1512 17.68 90.6912 17.564 91.1552 17.332C91.6272 17.092 91.9872 16.756 92.2352 16.324C92.4912 15.884 92.6192 15.376 92.6192 14.8C92.6192 14.224 92.4912 13.72 92.2352 13.288C91.9872 12.848 91.6272 12.512 91.1552 12.28C90.6912 12.04 90.1512 11.92 89.5352 11.92H87.4952V17.68H89.5352Z"
        fill="#191B6B" />
    <circle cx="15" cy="15" r="14.5" fill="white" stroke="#191B6B" />
    <path d="M7.5 15L12 19.5L23.5 11" stroke="#191B6B" stroke-width="2" />
</svg>
