<svg width="25" height="25" viewBox="0 0 25 25" fill="none" xmlns="http://www.w3.org/2000/svg">
    <path
        d="M21.8748 10.4164H20.8332V7.3811C20.8332 4.50937 17.1166 1.0415 12.4999 1.0415C7.8832 1.0415 4.16659 4.5091 4.16659 7.3811V10.4164H3.125V7.3811C3.125 3.96965 7.22072 0 12.4998 0C17.7789 0 21.8746 3.96965 21.8746 7.3811L21.8748 10.4164Z"
        fill="#171717" />
    <path
        d="M24.4788 18.7501H21.3539C21.0674 18.7501 20.833 18.5157 20.833 18.2292V9.89588C20.833 9.60937 21.0674 9.375 21.3539 9.375H24.4788C24.7653 9.375 24.9997 9.60937 24.9997 9.89588V18.2292C24.9997 18.5157 24.7653 18.7501 24.4788 18.7501ZM21.8748 17.7085H23.9581V10.4171H21.8748V17.7085Z"
        fill="#171717" />
    <path
        d="M3.64582 18.7501H0.520882C0.233325 18.7501 0 18.5157 0 18.2292V9.89588C0 9.60937 0.233325 9.375 0.520882 9.375H3.64582C3.93337 9.375 4.1667 9.60937 4.1667 9.89588V18.2292C4.1667 18.5157 3.93337 18.7501 3.64582 18.7501ZM1.04159 17.7085H3.12494V10.4171H1.04159V17.7085Z"
        fill="#171717" />
    <path
        d="M12.4994 20.8027C8.26919 20.8027 5.20801 15.1332 5.20801 11.31V9.46419C5.20801 5.4382 8.47874 2.16211 12.4994 2.16211C16.5191 2.16211 19.7907 5.42967 19.7907 9.44098V11.5461C19.7907 15.7116 16.4262 20.8022 12.4994 20.8022V20.8027ZM12.4994 3.20218C9.05253 3.20218 6.2495 6.0094 6.2495 9.46232V11.3071C6.2495 14.6435 9.0494 19.7569 12.4994 19.7569C15.8065 19.7569 18.7492 15.1633 18.7492 11.5406V9.43754C18.7492 6.00221 15.9462 3.2024 12.4994 3.2024V3.20218Z"
        fill="#171717" />
    <path
        d="M17.187 24.9999H12.9715C12.1371 24.9999 11.458 24.3207 11.458 23.4865C11.458 22.5542 12.1372 21.875 12.9715 21.875H17.187C17.4735 21.875 17.7079 22.1094 17.7079 22.3959V24.4792C17.7079 24.7657 17.4735 25.0001 17.187 25.0001V24.9999ZM12.9715 22.9166C12.7111 22.9166 12.4996 23.1281 12.4996 23.3884C12.4996 23.7468 12.7111 23.9582 12.9715 23.9582H16.6661V22.9166H12.9715Z"
        fill="#171717" />
    <path
        d="M18.8146 23.9583H17.7073C17.4208 23.9583 17.1864 23.7239 17.1864 23.4374C17.1864 23.1509 17.4208 22.9165 17.7073 22.9165H18.8146C19.9272 22.9165 20.8333 22.0113 20.8333 20.8978V17.7084C20.8333 17.4219 21.0666 17.1875 21.3542 17.1875C21.6417 17.1875 21.8751 17.4219 21.8751 17.7084V20.8989C21.874 22.5874 20.5011 23.9583 18.8146 23.9583Z"
        fill="#171717" />
</svg>
