<svg width="29" height="17" viewBox="0 0 29 17" fill="none" xmlns="http://www.w3.org/2000/svg">
    <path
        d="M10.6846 3.81559C10.6846 5.92299 12.393 7.63141 14.5002 7.63141C16.6076 7.63141 18.3158 5.92299 18.3158 3.81559C18.3158 1.70842 16.6075 0 14.5002 0C12.3928 0 10.6846 1.70842 10.6846 3.81559ZM14.5002 1.52613C15.7626 1.52613 16.7896 2.55334 16.7896 3.81559C16.7896 5.07807 15.7626 6.10528 14.5002 6.10528C13.2377 6.10528 12.2107 5.07807 12.2107 3.81582C12.2107 2.55334 13.2377 1.52613 14.5002 1.52613Z"
        fill="#171717" />
    <path
        d="M23.6579 9.15703C25.7653 9.15703 27.4739 7.44861 27.4739 5.34121C27.4739 3.23381 25.7653 1.52539 23.6579 1.52539C21.5505 1.52539 19.8423 3.23381 19.8423 5.34121C19.8423 7.44861 21.5505 9.15703 23.6579 9.15703ZM23.6579 3.05147C24.9204 3.05147 25.9473 4.07867 25.9473 5.34092C25.9473 6.60341 24.9201 7.63038 23.6579 7.63038C22.3954 7.63038 21.3684 6.60318 21.3684 5.34092C21.3684 4.07844 22.3954 3.05147 23.6579 3.05147Z"
        fill="#171717" />
    <path
        d="M5.34193 9.15703C7.44933 9.15703 9.15752 7.44861 9.15752 5.34121C9.15752 3.23381 7.4491 1.52539 5.34193 1.52539C3.23453 1.52539 1.52588 3.23381 1.52588 5.34121C1.52588 7.44861 3.23453 9.15703 5.34193 9.15703ZM5.34193 3.05147C6.60441 3.05147 7.63139 4.07867 7.63139 5.34092C7.63139 6.60341 6.60418 7.63038 5.34193 7.63038C4.07945 7.63038 3.05247 6.60318 3.05247 5.34092C3.05225 4.07844 4.07945 3.05147 5.34193 3.05147Z"
        fill="#171717" />
    <path
        d="M23.658 10.6846C22.2891 10.6846 21.0417 11.2006 20.0965 12.0471C18.8513 10.2993 16.8098 9.1582 14.5001 9.1582C12.1895 9.1582 10.1468 10.3003 8.90207 12.0496C7.95645 11.2029 6.71106 10.6846 5.34224 10.6846C2.39176 10.6846 0 13.0763 0 16.0266H1.52613C1.52613 13.9226 3.23795 12.211 5.34218 12.211C6.44735 12.211 7.43923 12.6879 8.13667 13.4411C7.81189 14.2393 7.63163 15.1118 7.63163 16.0266H9.15776C9.15776 13.0811 11.5542 10.6846 14.5 10.6846C17.4455 10.6846 19.8422 13.081 19.8422 16.0266H21.3684C21.3684 15.1119 21.1881 14.2395 20.8633 13.4414C21.561 12.6879 22.5529 12.211 23.6578 12.211C25.7621 12.211 27.4739 13.9226 27.4739 16.0266H29C29 13.0763 26.6083 10.6846 23.6578 10.6846H23.658Z"
        fill="#171717" />
</svg>
