<svg width="29" height="27" viewBox="0 0 29 27" fill="none" xmlns="http://www.w3.org/2000/svg">
    <path
        d="M26.4445 10.3257C26.2158 8.72193 24.892 7.55386 23.3219 7.45851L22.5409 1.9826C22.4461 1.31769 21.8259 0.887193 21.2 0.976461L20.1048 1.13266C19.4399 1.22749 19.0094 1.84761 19.0987 2.47353L19.2214 3.33405L5.49734 7.00737L5.38002 7.0241C2.67557 7.64951 0.886973 10.2192 1.2775 12.9574L1.54526 14.8348C1.88555 17.2208 3.77941 19.0261 6.09803 19.3338L6.91251 25.0446C7.00734 25.7096 7.62746 26.1401 8.25338 26.0508L9.34859 25.8946C10.0135 25.7998 10.444 25.1796 10.3547 24.5537L9.60722 19.3124L21.4642 19.0582L21.5869 19.9187C21.6818 20.5836 22.3019 21.0141 22.9278 20.9248L24.023 20.7686C24.6879 20.6738 25.1184 20.0537 25.0292 19.4278L24.2482 13.9518C25.729 13.4211 26.6735 11.9295 26.4448 10.3257L26.4445 10.3257ZM2.52295 14.6953L2.25519 12.8179C1.94281 10.6275 3.39616 8.50463 5.56417 8.03565L7.87212 7.42698L9.42853 18.34L7.00347 18.4063C4.82423 18.5178 2.83543 16.8858 2.52304 14.6955L2.52295 14.6953ZM9.32084 24.302C9.36547 24.615 9.13057 24.9277 8.8179 24.9723L8.50494 25.0169C8.19199 25.0615 7.87927 24.8266 7.83468 24.514L7.09806 19.351L8.61239 19.3346L9.32084 24.302ZM10.4621 18.3125L8.86668 7.1257L19.3609 4.31199L21.3189 18.0412L10.4621 18.3125ZM23.9951 19.1761C24.0398 19.489 23.8048 19.8017 23.4922 19.8463L23.1792 19.891C22.8663 19.9356 22.5536 19.7007 22.509 19.388L20.1322 2.72523C20.0876 2.41228 20.3225 2.09955 20.6352 2.05496L20.9481 2.01033C21.2611 1.96569 21.5738 2.2006 21.6184 2.51327L23.9951 19.1761ZM24.1028 12.9348L23.4668 8.47572C24.4837 8.61019 25.316 9.40937 25.4666 10.4655C25.6172 11.5214 25.0415 12.5214 24.1028 12.9348Z"
        fill="#171717" />
</svg>
