<svg width="26" height="27" viewBox="0 0 26 27" fill="none" xmlns="http://www.w3.org/2000/svg">
    <path
        d="M25.4445 10.3257C25.2158 8.72193 23.892 7.55386 22.3219 7.45851L21.5409 1.9826C21.4461 1.31769 20.8259 0.887193 20.2 0.976461L19.1048 1.13266C18.4399 1.22749 18.0094 1.84761 18.0987 2.47353L18.2214 3.33405L4.49734 7.00737L4.38002 7.0241C1.67557 7.64951 -0.113027 10.2192 0.277499 12.9574L0.545257 14.8348C0.885546 17.2208 2.77941 19.0261 5.09803 19.3338L5.91251 25.0446C6.00734 25.7096 6.62746 26.1401 7.25338 26.0508L8.34859 25.8946C9.0135 25.7998 9.444 25.1796 9.35473 24.5537L8.60722 19.3124L20.4642 19.0582L20.5869 19.9187C20.6818 20.5836 21.3019 21.0141 21.9278 20.9248L23.023 20.7686C23.6879 20.6738 24.1184 20.0537 24.0292 19.4278L23.2482 13.9518C24.729 13.4211 25.6735 11.9295 25.4448 10.3257L25.4445 10.3257ZM1.52295 14.6953L1.25519 12.8179C0.942806 10.6275 2.39616 8.50463 4.56417 8.03565L6.87212 7.42698L8.42853 18.34L6.00347 18.4063C3.82423 18.5178 1.83543 16.8858 1.52304 14.6954L1.52295 14.6953ZM8.32084 24.302C8.36547 24.615 8.13057 24.9277 7.8179 24.9723L7.50494 25.0169C7.19199 25.0615 6.87927 24.8266 6.83468 24.514L6.09806 19.351L7.61239 19.3346L8.32084 24.302ZM9.46213 18.3125L7.86668 7.1257L18.3609 4.31199L20.3189 18.0412L9.46213 18.3125ZM22.9951 19.1761C23.0398 19.489 22.8048 19.8017 22.4922 19.8463L22.1792 19.891C21.8663 19.9356 21.5536 19.7007 21.509 19.388L19.1322 2.72523C19.0876 2.41228 19.3225 2.09955 19.6352 2.05496L19.9481 2.01033C20.2611 1.96569 20.5738 2.2006 20.6184 2.51327L22.9951 19.1761ZM23.1027 12.9348L22.4668 8.47572C23.4837 8.61019 24.316 9.40937 24.4666 10.4655C24.6172 11.5214 24.0415 12.5214 23.1027 12.9348Z"
        fill="#171717" />
</svg>
