<svg width="205" height="206" viewBox="0 0 205 206" fill="none" xmlns="http://www.w3.org/2000/svg">
    <path
        d="M202.125 6.85704C201.727 5.99883 201.189 5.21323 200.534 4.53009L200.309 4.32657C199.778 3.83696 199.181 3.42566 198.534 3.10259C184.762 -5.40556 134.06 2.87773 100.169 36.7672C97.435 39.5012 94.9046 42.3161 92.5589 45.1529H92.3953L57.4241 64.6992C54.8011 66.1566 52.8057 68.5277 51.815 71.3598C50.8245 74.192 50.9085 77.2887 52.0513 80.0643C53.1956 82.8382 55.3176 85.0955 58.016 86.409L68.034 91.285C67.7892 92.0806 67.5643 92.8562 67.3608 93.5906L60.3413 100.61C58.0485 102.904 56.7605 106.017 56.7605 109.26C56.7605 112.504 58.0485 115.616 60.3413 117.911L60.7896 118.359V118.36C59.6084 119.261 58.4968 120.25 57.465 121.319C47.7531 131.031 46.162 147.333 49.7726 153.006V153.004C50.026 153.467 50.3419 153.892 50.7105 154.27L50.8329 154.392C51.0734 154.627 51.341 154.833 51.6299 155.004C54.2159 156.493 57.1778 157.201 60.1577 157.045C62.1147 157.035 64.0671 156.857 65.9931 156.514C72.6496 155.358 78.7979 152.206 83.6211 147.475C84.6558 146.439 85.6093 145.327 86.4775 144.15L86.9258 144.599H86.9272C89.2229 146.897 92.3395 148.189 95.5877 148.189C98.8369 148.189 101.954 146.897 104.249 144.599L111.35 137.64L113.655 136.967L118.531 146.965C119.512 148.978 121.025 150.683 122.906 151.894C124.788 153.106 126.965 153.779 129.202 153.841H129.55C131.73 153.841 133.87 153.257 135.749 152.153C137.629 151.048 139.179 149.461 140.241 147.557L159.705 112.545V112.402C162.541 110.055 165.357 107.526 168.091 104.792C201.798 71.1459 210.263 21.077 202.124 6.85672L202.125 6.85704ZM61.587 79.0626C60.2136 78.3994 59.3255 77.026 59.2828 75.5032C59.2387 73.9789 60.0485 72.5585 61.3821 71.8186L81.6829 60.5155C77.2995 67.8082 73.6032 75.4919 70.6459 83.4692L61.587 79.0626ZM77.9099 141.701C70.606 148.984 59.2814 149.332 56.5689 148.331C55.5698 145.536 55.937 134.253 63.1996 126.99L63.1982 126.989C64.2528 125.964 65.407 125.048 66.6466 124.255L80.6224 138.231C79.8511 139.48 78.9559 140.65 77.9497 141.72L77.9099 141.701ZM98.538 138.824L98.5366 138.823C97.7709 139.589 96.7319 140.02 95.6488 140.02C94.5658 140.02 93.5283 139.589 92.7626 138.823L66.1156 112.135C65.3499 111.37 64.9186 110.331 64.9186 109.248C64.9186 108.165 65.3499 107.126 66.1156 106.361L70.6458 101.83L103.087 134.293L98.538 138.824ZM133.081 143.538L133.08 143.537C132.327 144.842 130.913 145.627 129.406 145.576C127.891 145.533 126.523 144.654 125.857 143.291L121.449 134.232C129.422 131.327 137.106 127.686 144.403 123.357L133.081 143.538ZM162.399 98.9971C147.692 113.366 129.634 123.844 109.861 129.48L75.4619 95.0804C81.1406 75.2962 91.6595 57.2397 106.067 42.5421C138.957 9.65174 185.639 4.49008 194.395 10.0798L194.578 10.1823L194.864 10.346L194.987 10.5709L195.109 10.8156C199.924 19.3038 195.842 65.4963 162.402 98.9977L162.399 98.9971Z"
        fill="black" />
    <path
        d="M128.753 43.0088C124.351 47.4079 121.877 53.3769 121.876 59.6006C121.876 65.8243 124.347 71.7934 128.747 76.1939C133.148 80.5945 139.117 83.068 145.34 83.068C151.564 83.068 157.532 80.5944 161.932 76.1939C166.333 71.7934 168.805 65.8243 168.803 59.6006C168.803 53.3769 166.33 47.4079 161.928 43.0088C157.526 38.6152 151.56 36.1489 145.34 36.1489C139.121 36.1489 133.155 38.6153 128.753 43.0088ZM156.154 70.41C153.284 73.2792 149.391 74.8903 145.334 74.8888C141.276 74.8874 137.385 73.2749 134.516 70.4056C131.647 67.5363 130.035 63.6437 130.035 59.5864C130.035 55.5291 131.647 51.6364 134.516 48.7672C137.385 45.898 141.276 44.2854 145.334 44.284C149.391 44.2825 153.283 45.8937 156.154 48.7629C159.021 51.6349 160.632 55.5273 160.632 59.5864C160.632 63.6456 159.02 67.5379 156.154 70.41Z"
        fill="black" />
    <path
        d="M27.4347 146.251C27.7312 146.135 28.0419 146.057 28.359 146.021C30.2591 145.819 31.9993 147.095 32.3731 148.961C32.7482 150.827 31.6332 152.671 29.8027 153.214L4.91224 161.672C2.98244 162.34 0.874805 161.323 0.205799 159.4C-0.464495 157.477 0.55642 155.377 2.48615 154.71L27.4347 146.251Z"
        fill="#8486D2" />
    <path
        d="M40.0237 160.694C40.6089 160.092 41.3836 159.705 42.2189 159.601C43.7891 159.405 45.3115 160.226 46.0037 161.645C46.6959 163.063 46.4046 164.764 45.2792 165.873L17.4445 193.608C16.7523 194.319 15.8022 194.721 14.8097 194.725C13.8171 194.728 12.8645 194.334 12.1658 193.632C11.4671 192.928 11.083 191.975 11.0985 190.986C11.1127 189.995 11.5264 189.054 12.247 188.373L40.0237 160.694Z"
        fill="#8486D2" />
    <path
        d="M52.7865 176.116C53.2726 174.558 54.7306 173.504 56.3676 173.526C57.5626 173.547 58.675 174.142 59.3517 175.125C60.0285 176.108 60.1857 177.356 59.7745 178.475L51.2847 203.276C51.0191 204.258 50.3578 205.088 49.4568 205.567C48.5557 206.044 47.4974 206.132 46.5306 205.806C45.5638 205.478 44.7749 204.768 44.3521 203.843C43.9293 202.917 43.9099 201.858 44.2979 200.917L52.7865 176.116Z"
        fill="#8486D2" />
</svg>
