<svg width="26" height="26" viewBox="0 0 26 26" fill="none" xmlns="http://www.w3.org/2000/svg">
    <path
        d="M19.4415 16.6408C19.9765 16.6408 20.4681 16.4801 20.8659 16.1946C21.2645 15.9075 21.5749 15.4925 21.7443 14.987L24.1579 7.79855H7.38882L9.80245 14.987C9.97168 15.4925 10.2822 15.9075 10.6809 16.1946C11.0779 16.4801 11.5695 16.6408 12.1053 16.6408H19.4415ZM6.01048 7.35453L4.8248 3.82231C4.65557 3.31679 4.34504 2.90181 3.94636 2.61466C3.54932 2.32917 3.05776 2.16846 2.52196 2.16846H1.58423C1.26119 2.16846 1 1.90709 1 1.58423C1 1.26119 1.26137 1 1.58423 1H2.52196C3.30353 1 4.02999 1.24178 4.62671 1.67004C5.22111 2.09756 5.68052 2.70992 5.93029 3.45249L6.99664 6.62903H24.9684V6.63066C25.0291 6.63066 25.0917 6.64082 25.1532 6.66113C25.4583 6.76325 25.6228 7.09337 25.5207 7.39827L22.8489 15.3561C22.5993 16.0987 22.1399 16.7112 21.5454 17.1385C20.9486 17.5675 20.2224 17.8086 19.4406 17.8086H12.1045C11.323 17.8086 10.5965 17.5668 9.99978 17.1385C9.40538 16.711 8.94596 16.0987 8.69708 15.3561L6.04093 7.44377C6.02841 7.41493 6.01825 7.38446 6.01045 7.35326L6.01048 7.35453ZM18.7575 19.7746C19.4682 19.7746 20.1117 20.0625 20.5775 20.529C21.0432 20.9948 21.3318 21.6383 21.3318 22.349C21.3318 23.0596 21.044 23.7032 20.5775 24.1689C20.1117 24.6347 19.4681 24.9233 18.7575 24.9233C18.0469 24.9233 17.4033 24.6347 16.9375 24.1689C16.4717 23.7032 16.1832 23.0596 16.1832 22.349C16.1832 21.6383 16.4717 20.9948 16.9375 20.529C17.4033 20.0632 18.0469 19.7746 18.7575 19.7746ZM19.7513 21.3552C19.497 21.1009 19.146 20.9433 18.7575 20.9433C18.369 20.9433 18.018 21.1009 17.7637 21.3552C17.5094 21.6095 17.3518 21.9605 17.3518 22.349C17.3518 22.7375 17.5094 23.0885 17.7637 23.3427C18.018 23.597 18.369 23.7547 18.7575 23.7547C19.1453 23.7547 19.497 23.597 19.7513 23.3427C20.0056 23.0884 20.1632 22.7375 20.1632 22.349C20.1632 21.9604 20.0056 21.6095 19.7513 21.3552ZM11.6727 19.7746C12.3834 19.7746 13.0269 20.0625 13.4927 20.529C13.9585 20.9948 14.247 21.6383 14.247 22.349C14.247 23.0596 13.9585 23.7032 13.4927 24.1689C13.0269 24.6347 12.3833 24.9233 11.6727 24.9233C10.962 24.9233 10.3185 24.6347 9.85274 24.1689C9.38696 23.7032 9.09838 23.0596 9.09838 22.349C9.09838 21.6383 9.38623 20.9948 9.85274 20.529C10.3185 20.0632 10.9621 19.7746 11.6727 19.7746ZM12.6665 21.3552C12.4122 21.1009 12.0612 20.9433 11.6727 20.9433C11.2849 20.9433 10.9332 21.1009 10.6789 21.3552C10.4247 21.6095 10.267 21.9605 10.267 22.349C10.267 22.7375 10.4246 23.0885 10.6789 23.3427C10.9332 23.597 11.2842 23.7547 11.6727 23.7547C12.0612 23.7547 12.4122 23.597 12.6665 23.3427C12.9208 23.0884 13.0784 22.7375 13.0784 22.349C13.0784 21.9604 12.9208 21.6095 12.6665 21.3552Z"
        fill="white" stroke="white" stroke-width="0.2" />
</svg>
