<svg width="24" height="25" viewBox="0 0 24 25" fill="none" xmlns="http://www.w3.org/2000/svg">
    <path
        d="M12.0121 0C8.83008 0.0123574 5.78194 1.28188 3.53191 3.53191C1.28188 5.78194 0.0123574 8.83008 0 12.0121C0 14.0767 0.609988 16.2351 1.78304 18.1589L0.0469222 23.0857C0.00513685 23.2099 -0.00114448 23.3433 0.0287855 23.4709C0.0587155 23.5985 0.123668 23.7152 0.21633 23.8078C0.308991 23.9005 0.425681 23.9654 0.55326 23.9954C0.68084 24.0253 0.814241 24.019 0.938444 23.9772L5.91219 22.288C8.19376 23.6651 10.871 24.2378 13.5163 23.9145C16.1615 23.5913 18.6221 22.3909 20.505 20.505C22.162 18.8165 23.2858 16.678 23.7365 14.3556C24.1871 12.0332 23.9447 9.62958 23.0394 7.44393C22.1342 5.25828 20.606 3.38718 18.6452 2.06357C16.6845 0.739965 14.3777 0.0223261 12.0121 0V0ZM12.0121 22.6165C10.0413 22.6165 8.16446 22.0534 6.38142 20.9273C6.29355 20.8663 6.19295 20.8262 6.08726 20.8099C5.98156 20.7937 5.87355 20.8017 5.77143 20.8335L1.87689 22.1942L3.23763 18.2997C3.28455 18.112 3.28455 17.8774 3.14379 17.6897C2.01765 15.9066 1.40767 13.9359 1.40767 12.0121C1.40767 9.91472 2.0296 7.86447 3.19483 6.12058C4.36006 4.3767 6.01624 3.0175 7.95395 2.21488C9.89165 1.41226 12.0238 1.20225 14.0809 1.61143C16.138 2.0206 18.0275 3.03057 19.5105 4.51363C20.9936 5.99668 22.0036 7.88621 22.4127 9.94326C22.8219 12.0003 22.6119 14.1325 21.8093 16.0702C21.0067 18.0079 19.6475 19.6641 17.9036 20.8293C16.1597 21.9946 14.1094 22.6165 12.0121 22.6165Z"
        fill="white" />
    <path
        d="M19.3792 14.8741L17.1269 12.6688C16.8458 12.3908 16.4665 12.2349 16.0712 12.2349C15.6758 12.2349 15.2965 12.3908 15.0154 12.6688L14.4523 13.2318C14.2871 13.3869 14.069 13.4732 13.8423 13.4732C13.6157 13.4732 13.3976 13.3869 13.2324 13.2318L10.9801 10.9796C10.6516 10.6511 10.6516 10.088 10.9801 9.75959L11.5432 9.19653C11.8211 8.91544 11.977 8.53608 11.977 8.14078C11.977 7.74547 11.8211 7.36611 11.5432 7.08503L9.2909 4.83276C9.00981 4.55481 8.63045 4.39893 8.23515 4.39893C7.83984 4.39893 7.46048 4.55481 7.1794 4.83276L6.61633 5.39583C5.81865 6.19351 5.58404 7.8827 5.9125 9.80651C6.33576 11.8957 7.36824 13.8128 8.87971 15.3159C10.3912 16.819 12.3139 17.8408 14.4054 18.2525C15.8131 18.534 17.8307 18.581 18.8161 17.5487L19.3792 16.9856C19.6571 16.7045 19.813 16.3252 19.813 15.9299C19.813 15.5346 19.6571 15.1552 19.3792 14.8741ZM18.3469 16.0002L17.8307 16.5633C17.4084 16.9387 16.2354 17.1733 14.6869 16.8918C12.8686 16.529 11.1985 15.6356 9.8874 14.3245C8.5763 13.0134 7.68297 11.3433 7.32016 9.52498L7.1794 8.16424C7.1794 7.27272 7.36709 6.66273 7.64862 6.38119L8.16476 5.81813C8.17357 5.80814 8.1844 5.80015 8.19654 5.79467C8.20867 5.78919 8.22183 5.78636 8.23515 5.78636C8.24846 5.78636 8.26162 5.78919 8.27376 5.79467C8.28589 5.80015 8.29672 5.80814 8.30553 5.81813L10.5578 8.07039V8.16424L9.99473 8.7273C9.56779 9.15791 9.32824 9.73974 9.32824 10.3461C9.32824 10.9525 9.56779 11.5343 9.99473 11.9649L12.2001 14.2172C12.4101 14.4343 12.6616 14.607 12.9397 14.7249C13.2178 14.8428 13.5168 14.9035 13.8189 14.9035C14.121 14.9035 14.4199 14.8428 14.698 14.7249C14.9761 14.607 15.2277 14.4343 15.4377 14.2172L16.0008 13.6541H16.1415L18.3469 15.9064L18.3938 15.9533L18.3469 16.0002Z"
        fill="white" />
</svg>
