<svg width="51" height="48" viewBox="0 0 51 48" fill="none" xmlns="http://www.w3.org/2000/svg">
    <path
        d="M45.9551 8.98256H23.6046L28.0958 4.49132C28.5137 4.07343 28.5137 3.44676 28.0958 3.02922C27.6779 2.61132 27.0513 2.61132 26.6337 3.02922L21.7249 7.93799L14.1004 0.313423C13.6825 -0.104474 13.0558 -0.104474 12.6383 0.313423C12.2204 0.731321 12.2204 1.35799 12.6383 1.77553L19.8446 8.98256H4.1779C1.88 8.98256 0 10.8626 0 13.1605V39.6891C0 41.987 1.88 43.867 4.1779 43.867H5.64V46.687C5.64 47.3136 6.0579 47.7315 6.68457 47.7315H12.7425C13.3691 47.7315 13.787 47.3136 13.787 46.687V43.867H36.4518V46.687C36.4518 47.3136 36.8697 47.7315 37.4964 47.7315H43.5543C44.1809 47.7315 44.5988 47.3136 44.5988 46.687V43.867H45.9556C48.2535 43.867 50.1335 41.987 50.1335 39.6891V13.1605C50.1335 10.8626 48.2535 8.98256 45.9556 8.98256H45.9551ZM11.5932 45.5387H7.7286V43.8675H11.6974L11.6977 45.5387H11.5932ZM42.4046 45.5387H38.4358V43.8675H42.4046V45.5387ZM48.0446 39.5854C48.0446 40.7342 47.1046 41.6742 45.9558 41.6742H4.17772C3.02895 41.6742 2.08895 40.7342 2.08895 39.5854L2.0886 13.1606C2.0886 12.0119 3.0286 11.0719 4.17737 11.0719H45.9555C47.1042 11.0719 48.0442 12.0119 48.0442 13.1606L48.0446 39.5854Z"
        fill="#FFFAFA" />
    <path
        d="M32.378 13.1606H8.35515C6.05725 13.1606 4.17725 15.0406 4.17725 17.3385V35.5119C4.17725 37.8098 6.05725 39.6898 8.35515 39.6898H32.3771C34.675 39.6898 36.555 37.8098 36.555 35.5119V17.3385C36.555 15.0406 34.675 13.1606 32.3774 13.1606H32.378ZM34.4668 35.4073C34.4668 36.5561 33.5268 37.4961 32.378 37.4961H8.35515C7.20638 37.4961 6.26637 36.5561 6.26637 35.4073V17.3387C6.26637 16.19 7.20638 15.25 8.35515 15.25H32.3771C33.5259 15.25 34.4659 16.19 34.4659 17.3387L34.4668 35.4073Z"
        fill="#FFFAFA" />
    <path
        d="M44.8065 35.6157H40.2111C39.5844 35.6157 39.1665 36.0336 39.1665 36.6603C39.1665 37.287 39.5844 37.7049 40.2111 37.7049H44.8065C45.4332 37.7049 45.8511 37.287 45.8511 36.6603C45.8511 36.0336 45.4332 35.6157 44.8065 35.6157Z"
        fill="#FFFAFA" />
    <path
        d="M44.8065 30.0806H40.2111C39.5844 30.0806 39.1665 30.4985 39.1665 31.1251C39.1665 31.7518 39.5844 32.1697 40.2111 32.1697H44.8065C45.4332 32.1697 45.8511 31.7518 45.8511 31.1251C45.8511 30.4985 45.4332 30.0806 44.8065 30.0806Z"
        fill="#FFFAFA" />
    <path
        d="M42.6132 14.7275C40.3153 14.7275 38.3311 16.6075 38.3311 19.0096C38.3311 21.4117 40.2111 23.2918 42.6132 23.2918C44.9111 23.2918 46.8953 21.4117 46.8953 19.0096C46.8953 16.6075 44.9111 14.7275 42.6132 14.7275ZM42.6132 21.203C41.4644 21.203 40.4198 20.263 40.4198 19.0096C40.4198 17.7563 41.3598 16.8163 42.6132 16.8163C43.7619 16.8163 44.8065 17.7563 44.8065 19.0096C44.8065 20.263 43.7619 21.203 42.6132 21.203Z"
        fill="#FFFAFA" />
</svg>
