<svg width="29" height="27" viewBox="0 0 29 27" fill="none" xmlns="http://www.w3.org/2000/svg">
    <path
        d="M26.4445 9.89601C26.2158 8.29225 24.892 7.12418 23.3219 7.02882L22.5409 1.55292C22.4461 0.888002 21.8259 0.457505 21.2 0.546773L20.1048 0.702972C19.4399 0.797801 19.0094 1.41793 19.0987 2.04384L19.2214 2.90437L5.49734 6.57768L5.38002 6.59442C2.67557 7.21982 0.886973 9.78947 1.2775 12.5277L1.54526 14.4051C1.88555 16.7911 3.77941 18.5964 6.09803 18.9041L6.91251 24.615C7.00734 25.2799 7.62746 25.7104 8.25338 25.6211L9.34859 25.4649C10.0135 25.3701 10.444 24.7499 10.3547 24.124L9.60722 18.8827L21.4642 18.6285L21.5869 19.489C21.6818 20.1539 22.3019 20.5844 22.9278 20.4951L24.023 20.3389C24.6879 20.2441 25.1184 19.624 25.0292 18.9981L24.2482 13.5222C25.729 12.9914 26.6735 11.4998 26.4448 9.89605L26.4445 9.89601ZM2.52295 14.2656L2.25519 12.3882C1.94281 10.1978 3.39616 8.07494 5.56417 7.60596L7.87212 6.99729L9.42853 17.9103L7.00347 17.9766C4.82423 18.0881 2.83543 16.4561 2.52304 14.2658L2.52295 14.2656ZM9.32084 23.8723C9.36547 24.1853 9.13057 24.498 8.8179 24.5426L8.50494 24.5872C8.19199 24.6318 7.87927 24.3969 7.83468 24.0843L7.09806 18.9213L8.61239 18.905L9.32084 23.8723ZM10.4621 17.8828L8.86668 6.69602L19.3609 3.8823L21.3189 17.6115L10.4621 17.8828ZM23.9951 18.7464C24.0398 19.0593 23.8048 19.372 23.4922 19.4166L23.1792 19.4613C22.8663 19.5059 22.5536 19.271 22.509 18.9583L20.1322 2.29554C20.0876 1.98259 20.3225 1.66986 20.6352 1.62527L20.9481 1.58064C21.2611 1.536 21.5738 1.77091 21.6184 2.08358L23.9951 18.7464ZM24.1027 12.5051L23.4668 8.04603C24.4837 8.1805 25.316 8.97968 25.4666 10.0358C25.6172 11.0917 25.0415 12.0917 24.1027 12.5051Z"
        fill="#171717" />
    <path
        d="M14.5913 8.68951L11.9837 13.7423C11.807 14.0848 12.0679 14.4901 12.4529 14.4709L18.1002 14.1897C18.4833 14.1706 18.7031 13.7451 18.4971 13.4216L15.4574 8.65017C15.2501 8.32488 14.7682 8.34677 14.5913 8.68951Z"
        stroke="#171717" stroke-width="0.8" />
    <rect x="14.957" y="10.5508" width="0.521739" height="1.82609"
        transform="rotate(-2.85129 14.957 10.5508)" fill="#171717" />
    <rect x="15.0605" y="12.6348" width="0.521739" height="0.521739"
        transform="rotate(-2.85129 15.0605 12.6348)" fill="#171717" />
</svg>
