<svg width="24" height="23" viewBox="0 0 24 23" fill="none" xmlns="http://www.w3.org/2000/svg">
    <path
        d="M21.4469 3.5744V0.510597C21.4469 0.243271 21.2036 0 20.9363 0H3.06381C2.79648 0 2.55321 0.24328 2.55321 0.510597V3.5744C1.53202 5.10642 0.776313 6.44572 0 7.65963V8.93624C0 10.1227 0.743577 11.1429 1.7872 11.5532V21.9575C1.7872 22.2249 2.03048 22.4681 2.2978 22.4681H21.7022C21.9695 22.4681 22.2128 22.2248 22.2128 21.9575V11.5532C23.2565 11.1429 24 10.1225 24 8.93624V7.65963M3.57431 1.02128H20.4255V3.5745H3.57431V1.02128ZM3.08756 4.59569H20.9122L22.9786 7.80325V8.93633C22.9786 9.93527 22.1904 10.7235 21.1914 10.7235C20.1925 10.7235 19.4042 9.93527 19.4042 8.93633H18.383C18.383 9.93527 17.5948 10.7235 16.5958 10.7235C15.5969 10.7235 14.8086 9.93527 14.8086 8.93633H13.7874C13.7874 9.93527 12.9992 10.7235 12.0002 10.7235C11.0013 10.7235 10.213 9.93527 10.213 8.93633H9.19183C9.19183 9.93527 8.40357 10.7235 7.40463 10.7235C6.40569 10.7235 5.61743 9.93527 5.61743 8.93633H4.59624C4.59624 9.93527 3.80798 10.7235 2.80903 10.7235C1.81009 10.7235 1.02183 9.93527 1.02183 8.93633V7.80325L3.08756 4.59569ZM5.1061 10.4521C5.61013 11.2087 6.4299 11.7448 7.4039 11.7448C8.37791 11.7448 9.19771 11.2089 9.7017 10.4521C10.2057 11.2087 11.0255 11.7448 11.9995 11.7448C12.9735 11.7448 13.7933 11.2089 14.2973 10.4521C14.8013 11.2087 15.6211 11.7448 16.5951 11.7448C17.5691 11.7448 18.3889 11.2089 18.8929 10.4521C19.3969 11.2087 20.2167 11.7448 21.1907 11.7448V21.447H10.9778V13.7873C10.9778 13.52 10.7346 13.2767 10.4673 13.2767H5.36083C5.09351 13.2767 4.85023 13.52 4.85023 13.7873V21.447H2.80762V11.7448C3.78162 11.7448 4.60212 11.2089 5.1061 10.4521ZM5.87207 14.2978H9.95729V21.4467H5.87207V14.2978Z"
        fill="#171717" />
    <path
        d="M18.5148 16.3223H18.1601C18.1234 16.1909 18.0736 16.0635 18.0113 15.9422L18.2569 15.6966C18.3468 15.6048 18.3971 15.4815 18.3971 15.3531C18.3971 15.2247 18.3468 15.1014 18.2569 15.0096L17.9884 14.7411C17.8963 14.6525 17.7733 14.6031 17.6455 14.6034C17.5177 14.6038 17.395 14.6538 17.3034 14.743L17.0655 14.981V14.9809C16.9398 14.9133 16.8079 14.8576 16.6717 14.8147V14.4852V14.4852C16.6731 14.3561 16.6224 14.2319 16.5311 14.1406C16.4399 14.0493 16.3157 13.9987 16.1866 14H15.8133C15.6842 13.9987 15.56 14.0493 15.4688 14.1406C15.3775 14.2319 15.3268 14.3561 15.3282 14.4852V14.8128C15.1914 14.8549 15.0593 14.9112 14.9342 14.9807L14.6965 14.743H14.6965C14.6045 14.6536 14.4813 14.6036 14.3531 14.6036C14.2248 14.6036 14.1016 14.6537 14.0096 14.743L13.743 15.0096C13.6531 15.1013 13.6028 15.2247 13.6028 15.3531C13.6028 15.4815 13.6531 15.6048 13.743 15.6966L13.9886 15.9422V15.9422C13.9264 16.0636 13.8765 16.1909 13.8399 16.3223H13.4851C13.3557 16.3233 13.232 16.3755 13.141 16.4676C13.0501 16.5596 12.9994 16.684 13 16.8134V17.1867C13.0001 17.3152 13.0513 17.4386 13.1423 17.5295C13.2332 17.6205 13.3565 17.6716 13.4851 17.6718H13.8615C13.901 17.7961 13.9528 17.9163 14.016 18.0305L13.743 18.3034H13.743C13.6536 18.3954 13.6036 18.5187 13.6036 18.6469C13.6036 18.7752 13.6536 18.8984 13.743 18.9904L14.0115 19.2589H14.0115C14.1036 19.3476 14.2266 19.3969 14.3544 19.3966C14.4822 19.3962 14.6049 19.3462 14.6965 19.257L14.9835 18.9701C15.0941 19.0262 15.2095 19.0727 15.3282 19.1089V19.5149C15.3268 19.6439 15.3775 19.7682 15.4687 19.8594C15.56 19.9507 15.6842 20.0014 15.8133 20H16.1866C16.3152 19.9998 16.4385 19.9487 16.5294 19.8577C16.6204 19.7668 16.6715 19.6435 16.6717 19.5149V19.1089C16.7904 19.0727 16.9057 19.0262 17.0164 18.9701L17.3034 19.2571C17.3954 19.3464 17.5186 19.3964 17.6468 19.3964C17.7751 19.3964 17.8983 19.3464 17.9903 19.257L18.2588 18.9885C18.3475 18.8964 18.3969 18.7734 18.3965 18.6456C18.3962 18.5178 18.3461 18.395 18.2569 18.3035L17.9839 18.0305C18.0471 17.9163 18.0988 17.7961 18.1384 17.6718H18.5148C18.6434 17.6716 18.7667 17.6205 18.8576 17.5295C18.9486 17.4386 18.9997 17.3153 18.9999 17.1867V16.8134C19.0005 16.684 18.9498 16.5596 18.8588 16.4676C18.7679 16.3755 18.6442 16.3233 18.5148 16.3224L18.5148 16.3223ZM18.7406 17.1867C18.7405 17.2465 18.7167 17.3039 18.6743 17.3462C18.632 17.3885 18.5746 17.4123 18.5148 17.4124H18.0409C17.9818 17.4124 17.9301 17.4524 17.9153 17.5096C17.8713 17.677 17.8025 17.8367 17.7112 17.9836C17.6797 18.0347 17.6875 18.1008 17.73 18.1432L18.0735 18.4869C18.1149 18.5299 18.138 18.5873 18.138 18.647C18.138 18.7066 18.1149 18.764 18.0735 18.807L17.8089 19.0717C17.766 19.1138 17.7084 19.1375 17.6483 19.1378C17.5881 19.1382 17.5302 19.1152 17.4868 19.0736L17.1314 18.7182C17.0899 18.6767 17.0257 18.6682 16.9749 18.6975C16.8285 18.7807 16.6717 18.8441 16.5086 18.886C16.4519 18.9011 16.4123 18.9525 16.4123 19.0113V19.5149C16.4122 19.5747 16.3884 19.6321 16.3461 19.6744C16.3038 19.7167 16.2464 19.7405 16.1866 19.7406H15.8133C15.7533 19.7412 15.6955 19.7177 15.653 19.6752C15.6105 19.6327 15.5869 19.5749 15.5876 19.5149V19.0113C15.5876 18.9525 15.5481 18.9011 15.4913 18.886C15.3282 18.8441 15.1714 18.7807 15.025 18.6975C14.9742 18.6682 14.91 18.6767 14.8685 18.7182L14.5131 19.0736C14.4701 19.115 14.4127 19.138 14.353 19.1381C14.2933 19.1381 14.236 19.115 14.193 19.0736L13.9283 18.809C13.8863 18.7661 13.8625 18.7084 13.8622 18.6483C13.8618 18.5882 13.8848 18.5303 13.9264 18.4869L14.27 18.1432C14.3124 18.1008 14.3202 18.0347 14.2887 17.9836C14.1974 17.8367 14.1286 17.677 14.0847 17.5097C14.0699 17.4524 14.0183 17.4124 13.9591 17.4124H13.4851C13.4253 17.4123 13.3679 17.3885 13.3256 17.3462C13.2832 17.3039 13.2595 17.2465 13.2594 17.1866V16.8134C13.2587 16.7528 13.282 16.6943 13.3244 16.6509C13.3667 16.6074 13.4245 16.5825 13.4851 16.5817H13.9413C14.0022 16.5817 14.055 16.5393 14.068 16.4797C14.1068 16.3054 14.172 16.1379 14.2612 15.9832C14.2902 15.9324 14.2817 15.8685 14.2403 15.8271L13.9264 15.5131C13.8851 15.47 13.8622 15.4127 13.8622 15.3531C13.8622 15.2934 13.8851 15.2361 13.9264 15.193L14.191 14.9284H14.191C14.234 14.8863 14.2916 14.8626 14.3516 14.8622C14.4118 14.8619 14.4696 14.8849 14.5131 14.9264L14.8212 15.2345C14.8634 15.2768 14.9291 15.2847 14.9802 15.2537C15.1375 15.156 15.309 15.0832 15.4885 15.0378C15.5466 15.0237 15.5876 14.9715 15.5876 14.9117V14.4852C15.5855 14.4247 15.6086 14.366 15.6514 14.3233C15.6942 14.2805 15.7528 14.2573 15.8133 14.2594H16.1865C16.2466 14.2588 16.3044 14.2824 16.3469 14.3248C16.3894 14.3673 16.4129 14.4251 16.4123 14.4852V14.9117C16.4123 14.9702 16.4514 15.0214 16.5078 15.0369C16.6878 15.0849 16.86 15.1579 17.0197 15.2536C17.0708 15.2847 17.1365 15.2768 17.1787 15.2345L17.4868 14.9265C17.5298 14.8851 17.5872 14.862 17.6468 14.862C17.7065 14.862 17.7639 14.8851 17.8069 14.9264L18.0735 15.193C18.1147 15.2362 18.1377 15.2935 18.1377 15.3531C18.1377 15.4127 18.1147 15.47 18.0735 15.5131L17.7595 15.8271C17.7182 15.8685 17.7096 15.9324 17.7386 15.9832C17.8279 16.1379 17.8931 16.3054 17.9319 16.4797C17.9449 16.5393 17.9976 16.5817 18.0586 16.5817H18.5148C18.5754 16.5825 18.6332 16.6074 18.6755 16.6509C18.7178 16.6943 18.7412 16.7528 18.7405 16.8134L18.7406 17.1867Z"
        fill="#171717" stroke="black" stroke-width="0.4" />
    <path
        d="M16.0002 16.0156C15.7394 16.0156 15.4893 16.1192 15.3049 16.3036C15.1204 16.4881 15.0168 16.7382 15.0168 16.999C15.0168 17.2598 15.1204 17.5099 15.3048 17.6943C15.4893 17.8787 15.7394 17.9824 16.0002 17.9824C16.261 17.9824 16.5111 17.8787 16.6956 17.6943C16.88 17.5099 16.9836 17.2598 16.9836 16.9989C16.9833 16.7382 16.8796 16.4883 16.6952 16.304C16.5109 16.1196 16.2609 16.0159 16.0002 16.0156H16.0002ZM16.0002 17.723V17.7229C15.8082 17.7229 15.624 17.6467 15.4883 17.5109C15.3525 17.3751 15.2762 17.191 15.2762 16.999C15.2762 16.807 15.3525 16.6228 15.4882 16.487C15.624 16.3512 15.8082 16.275 16.0002 16.275C16.1922 16.275 16.3764 16.3512 16.5121 16.487C16.6479 16.6228 16.7242 16.8069 16.7242 16.9989C16.724 17.1909 16.6476 17.3749 16.5119 17.5106C16.3762 17.6464 16.1922 17.7227 16.0002 17.7229V17.723Z"
        fill="#171717" stroke="black" stroke-width="0.4" />
</svg>
