<svg width="41" height="42" viewBox="0 0 41 42" fill="none" xmlns="http://www.w3.org/2000/svg">
    <rect width="41" height="42" rx="6" fill="#191B6B" />
    <path
        d="M9.86506 11.1652C9.71304 10.8991 9.70565 10.5546 9.87876 10.2308L9.86506 11.1652ZM9.86506 11.1652C9.87969 11.1849 9.89266 11.204 9.90418 11.2223C9.91178 11.2343 9.91877 11.2461 9.92494 11.2569L17.755 21.4681L17.9099 21.67V21.9244V29.2959C17.9099 29.4987 18.0104 29.665 18.1583 29.7503L18.1685 29.7562L18.1784 29.7623L22.2152 32.2628L22.2242 32.2684L22.233 32.2743C22.2865 32.3095 22.3993 32.3452 22.5096 32.3452C22.5838 32.3452 22.6619 32.328 22.7895 32.2661C22.9739 32.1641 23.0725 31.9942 23.0725 31.7961L23.0723 21.9248L23.0723 21.6704L23.2271 21.4684L31.0566 11.2581C31.0631 11.2466 31.0706 11.234 31.0788 11.2211C31.0905 11.2027 31.1035 11.1836 31.1182 11.164C31.2862 10.8739 31.2951 10.5279 31.1362 10.231L31.1268 10.2134C30.9694 9.93527 30.6513 9.75 30.2878 9.75H10.7274C10.3567 9.75 10.0331 9.94271 9.87887 10.2306L9.86506 11.1652Z"
        stroke="white" stroke-width="1.5" />
</svg>
