<svg width="21" height="28" viewBox="0 0 21 28" fill="none" xmlns="http://www.w3.org/2000/svg">
    <path
        d="M2.02964 24.2308C1.78117 24.2308 1.61544 24.3966 1.61544 24.645V26.5089H0.414201C0.165728 26.5089 0 26.6747 0 26.9231C0 27.1716 0.165728 27.3373 0.414201 27.3373H20.5858C20.8343 27.3373 21 27.1716 21 26.9231C21 26.6747 20.8343 26.5089 20.5858 26.5089H19.3846V24.645C19.3846 24.3966 19.2188 24.2308 18.9704 24.2308H18.1833V6.58586H19.1775C19.4259 6.58586 19.5917 6.42013 19.5917 6.17166V4.51485C19.5917 4.26638 19.4259 4.10065 19.1775 4.10065H18.6805C17.6864 2.07101 14.5385 0 10.4793 0C6.42015 0 3.27222 2.07101 2.27814 4.10065H1.7812C1.53272 4.10065 1.36699 4.26638 1.36699 4.51485V6.17166C1.36699 6.42013 1.53272 6.58586 1.7812 6.58586H2.77534V24.1894H2.02966L2.02964 24.2308ZM18.5149 26.5089H2.44385V25.0592H18.5977V26.5089H18.5149ZM2.19533 4.92905H2.56815C2.73388 4.92905 2.89961 4.84631 2.94098 4.68058C3.68643 2.77508 6.75151 0.82839 10.4794 0.82839C14.2074 0.82839 17.2723 2.77502 18.0179 4.68058C18.1007 4.84631 18.225 4.92905 18.3907 4.92905H18.7636V5.75746H2.19551L2.19533 4.92905ZM3.60367 6.58586H17.3551V24.1894H3.60367V6.58586Z"
        fill="#171717" />
    <path
        d="M15.6151 9.56836H5.38429C5.17719 9.56836 4.97008 9.73409 4.97008 9.98256L4.92871 12.302C4.92871 12.4264 4.97008 12.5091 5.05307 12.5919C5.13581 12.6746 5.21879 12.7162 5.34291 12.7162H7.16546L6.41978 17.024C6.41978 17.1483 6.41978 17.2725 6.50252 17.3554C6.58527 17.4382 6.70962 17.5212 6.83398 17.5212H14.0411C14.1654 17.5212 14.2896 17.4798 14.3725 17.3554C14.4553 17.2727 14.4969 17.1483 14.4553 17.024L13.7096 12.7162H15.5321C15.7392 12.7162 15.9463 12.5505 15.9463 12.302L15.9877 9.98256C15.9877 9.85821 15.9463 9.77546 15.8634 9.69271C15.8222 9.60974 15.7392 9.56836 15.6151 9.56836H15.6151ZM7.37245 16.6926L8.20085 11.9293H12.7984L13.6268 16.6926H7.37245ZM15.1594 11.8877H13.5854L13.5026 11.4321C13.4612 11.225 13.2955 11.1007 13.0884 11.1007L7.82793 11.1009C7.62083 11.1009 7.4551 11.2666 7.41373 11.4324L7.33098 11.8879H5.7569V10.3969H15.1178L15.1594 11.8877Z"
        fill="#171717" />
</svg>
